<?xml version="1.0" encoding="UTF-8" standalone="no"?>
<svg
   xmlns:dc="http://purl.org/dc/elements/1.1/"
   xmlns:cc="http://creativecommons.org/ns#"
   xmlns:rdf="http://www.w3.org/1999/02/22-rdf-syntax-ns#"
   xmlns:svg="http://www.w3.org/2000/svg"
   xmlns="http://www.w3.org/2000/svg"
   xml:space="preserve"
   enable-background="new 0 0 1200 630"
   viewBox="0 0 1200 630"
   y="0px"
   x="0px"
   id="Слой_1"
   version="1.1"><metadata
     id="metadata22"><rdf:RDF><cc:Work
         rdf:about=""><dc:format>image/svg+xml</dc:format><dc:type
           rdf:resource="http://purl.org/dc/dcmitype/StillImage" /></cc:Work></rdf:RDF></metadata><defs
     id="defs20" /><rect
     id="rect2"
     height="630"
     width="1200"
     fill="#003680" /><polygon
     id="polygon4"
     points="1083.90002,257.10001 1011.90002,315 1025.30005,333.79999 1083.90002,286.79999   1155.59998,344.29999 1155.59998,588.09998 44.4,588.09998 44.4,258.89999 129.3,190.7 246.5,284.89999 363.79999,190.7   481.10001,284.89999 598.29999,190.7 715.59998,284.89999 832.79999,190.7 950.09998,284.89999 1067.40002,190.7   1155.59998,261.70001 1155.59998,314.70001 "
     fill="#ffffff" /><polygon
     id="polygon6"
     points="1155.59998,46.5 1155.59998,235.2 1067.40002,164.39999 950.09998,258.39999 832.79999,164.39999   715.59998,258.39999 598.29999,164.39999 481.10001,258.39999 363.79999,164.39999 246.5,258.39999 129.3,164.39999 44.4,232.5   44.4,166 45.5,166.89999 117.5,109.1 189.60001,166.89999 261.60001,109.1 248.10001,90.3 189.60001,137.39999 117.5,79.5   45.5,137.39999 44.4,136.5 44.4,46.5 "
     fill="#91a8c8" /><g
     id="center_2_"
     style="font-weight:400;font-size:44px;font-family:'Fredoka One';text-anchor:middle;fill:#003680"
     transform="translate(599.93517,124.47772)"
     aria-label="HURRY UP"><path
       id="path24"
       style="font-weight:400;font-size:44px;font-family:'Fredoka One';text-anchor:middle;fill:#003680"
       d="m -84.145531,-32.252 q 1.144,0 1.892,0.22 0.748,0.22 1.144,0.528 0.396,0.308 0.572,0.924 0.22,0.572 0.22,1.012 0.044,0.396 0.044,1.232 v 24.42 q 0,1.012 -0.088,1.54 -0.044,0.484 -0.396,1.144 -0.352,0.66 -1.188,0.924 -0.836,0.264 -2.244,0.264 -1.144,0 -1.892,-0.22 -0.748,-0.22 -1.144,-0.528 -0.396,-0.308 -0.616,-0.88 -0.176,-0.616 -0.22,-1.012 0,-0.44 0,-1.276 v -8.932 h -11.66 v 8.976 q 0,1.012 -0.088,1.54 -0.044,0.484 -0.395999,1.144 -0.352,0.66 -1.188,0.924 -0.836,0.264 -2.244,0.264 -1.144,0 -1.892,-0.22 -0.748,-0.22 -1.144,-0.528 -0.396,-0.308 -0.616,-0.88 -0.176,-0.616 -0.22,-1.012 0,-0.44 0,-1.276 v -24.42 q 0,-1.012 0.044,-1.496 0.088,-0.528 0.44,-1.188 0.352,-0.66 1.188,-0.924 0.836,-0.264 2.244,-0.264 1.144,0 1.892,0.22 0.748,0.22 1.144,0.528 0.396,0.308 0.571999,0.924 0.22,0.572 0.22,1.012 0.044,0.396 0.044,1.232 v 8.976 h 11.66 v -9.02 q 0,-1.012 0.044,-1.496 0.088,-0.528 0.44,-1.188 0.352,-0.66 1.188,-0.924 0.836,-0.264 2.244,-0.264 z" /><path
       id="path26"
       style="font-weight:400;font-size:44px;font-family:'Fredoka One';text-anchor:middle;fill:#003680"
       d="m -52.191906,-32.296 q 1.144,0 1.892,0.22 0.748,0.22 1.144,0.528 0.396,0.308 0.572,0.924 0.22,0.616 0.22,1.056 0.044,0.396 0.044,1.232 v 13.288 q 0,2.816 -0.968,5.544 -0.924,2.728 -2.684,5.016 -1.716,2.244 -4.488,3.652 -2.772,1.364 -6.16,1.364 -3.344,0 -6.116,-1.408 -2.728,-1.408 -4.444,-3.652 -1.716,-2.288 -2.64,-5.016 -0.924,-2.772 -0.924,-5.588 V -28.38 q 0,-1.056 0.044,-1.54 0.088,-0.528 0.44,-1.188 0.352,-0.66 1.188,-0.924 0.836,-0.264 2.244,-0.264 1.408,0 2.244,0.264 0.836,0.264 1.144,0.924 0.352,0.66 0.44,1.188 0.088,0.528 0.088,1.584 v 13.2 q 0,1.32 0.308,2.596 0.308,1.232 0.968,2.508 0.704,1.232 2.024,1.98 1.32,0.748 3.124,0.748 3.212,0 4.796,-2.376 1.584,-2.376 1.584,-5.5 v -13.464 q 0,-0.968 0.088,-1.452 0.088,-0.528 0.44,-1.1 0.352,-0.572 1.188,-0.836 0.836,-0.264 2.2,-0.264 z" /><path
       id="path28"
       style="font-weight:400;font-size:44px;font-family:'Fredoka One';text-anchor:middle;fill:#003680"
       d="m -20.091156,-5.456 q 0.66,1.584 0.66,2.288 0,1.672 -2.728,2.816 -1.408,0.616 -2.376,0.616 -0.748,0 -1.32,-0.396 -0.528,-0.44 -0.792,-0.88 -0.22,-0.44 -0.616,-1.364 -0.968,-2.2 -2.816,-6.6 l -1.364,0.088 h -5.544 v 4.972 q 0,1.012 -0.088,1.54 -0.044,0.484 -0.396,1.144 -0.352,0.66 -1.188,0.924 -0.836,0.264 -2.244,0.264 -1.144,0 -1.892,-0.22 -0.748,-0.22 -1.144,-0.528 -0.396,-0.308 -0.616,-0.88 -0.176,-0.616 -0.22,-1.012 0,-0.44 0,-1.276 v -24.42 q 0,-1.012 0.044,-1.496 0.088,-0.528 0.44,-1.188 0.352,-0.66 1.188,-0.924 0.836,-0.264 2.244,-0.264 h 9.504 q 1.848,0 3.784,0.748 1.98,0.704 3.74,2.068 1.76,1.364 2.904,3.696 1.144,2.332 1.144,5.192 0,4.972 -3.3,8.184 0.968,2.332 2.992,6.908 z m -16.896,-11.22 h 5.632 q 1.276,0 2.552,-0.968 1.276,-0.968 1.276,-2.948 0,-1.892 -1.276,-2.86 -1.276,-1.012 -2.64,-1.012 h -5.544 z" /><path
       id="path30"
       style="font-weight:400;font-size:44px;font-family:'Fredoka One';text-anchor:middle;fill:#003680"
       d="m 7.6666562,-5.456 q 0.66,1.584 0.66,2.288 0,1.672 -2.7279999,2.816 -1.4080001,0.616 -2.376,0.616 -0.7480001,0 -1.3200001,-0.396 -0.5279999,-0.44 -0.7919999,-0.88 -0.22000005,-0.44 -0.61600005,-1.364 -0.968,-2.2 -2.81600005,-6.6 l -1.3639999,0.088 h -5.5440001 v 4.972 q 0,1.012 -0.088,1.54 -0.044,0.484 -0.396,1.144 -0.3520002,0.66 -1.1880002,0.924 -0.836,0.264 -2.244,0.264 -1.144,0 -1.892,-0.22 -0.748,-0.22 -1.144,-0.528 -0.396,-0.308 -0.616,-0.88 -0.176,-0.616 -0.22,-1.012 0,-0.44 0,-1.276 v -24.42 q 0,-1.012 0.044,-1.496 0.088,-0.528 0.44,-1.188 0.352,-0.66 1.188,-0.924 0.836,-0.264 2.244,-0.264 h 9.5040003 q 1.8479999,0 3.78399995,0.748 1.98000005,0.704 3.74000005,2.068 1.76,1.364 2.9039999,3.696 1.144,2.332 1.144,5.192 0,4.972 -3.2999999,8.184 0.968,2.332 2.9919999,6.908 z m -16.896,-11.22 h 5.6320001 q 1.2759999,0 2.5519999,-0.968 1.27600005,-0.968 1.27600005,-2.948 0,-1.892 -1.27600005,-2.86 -1.276,-1.012 -2.6399999,-1.012 h -5.5440001 z" /><path
       id="path32"
       style="font-weight:400;font-size:44px;font-family:'Fredoka One';text-anchor:middle;fill:#003680"
       d="m 35.489094,-31.636 q 2.156,1.496 2.156,2.904 0,0.836 -1.012,2.332 l -9.504,14.212 v 8.404 q 0,1.012 -0.088,1.54 -0.044,0.484 -0.396,1.144 -0.352,0.66 -1.188,0.924 -0.836,0.264 -2.244,0.264 -1.408,0 -2.244,-0.264 -0.836,-0.264 -1.188,-0.924 -0.352,-0.704 -0.44,-1.188 -0.044,-0.528 -0.044,-1.584 v -8.316 L 9.7930938,-26.4 q -1.012,-1.496 -1.012,-2.332 0,-1.408 2.2000002,-2.904 1.672,-1.1 2.772,-1.1 0.572,0 1.056,0.352 0.528,0.352 0.792,0.704 0.308,0.352 0.792,1.1 l 6.82,10.912 6.82,-10.912 q 0.484,-0.748 0.748,-1.1 0.308,-0.352 0.792,-0.704 0.528,-0.352 1.144,-0.352 1.012,0 2.772,1.1 z" /><path
       id="path34"
       style="font-weight:400;font-size:44px;font-family:'Fredoka One';text-anchor:middle;fill:#003680"
       d="m 75.769031,-32.296 q 1.144,0 1.892,0.22 0.748,0.22 1.144,0.528 0.396,0.308 0.572,0.924 0.22,0.616 0.22,1.056 0.044,0.396 0.044,1.232 v 13.288 q 0,2.816 -0.968,5.544 -0.924,2.728 -2.684,5.016 -1.716,2.244 -4.488,3.652 -2.772,1.364 -6.16,1.364 -3.344,0 -6.116,-1.408 -2.728,-1.408 -4.444,-3.652 -1.716,-2.288 -2.64,-5.016 -0.924,-2.772 -0.924,-5.588 V -28.38 q 0,-1.056 0.044,-1.54 0.088,-0.528 0.44,-1.188 0.352,-0.66 1.188,-0.924 0.836,-0.264 2.244,-0.264 1.408,0 2.244,0.264 0.836,0.264 1.144,0.924 0.352,0.66 0.44,1.188 0.088,0.528 0.088,1.584 v 13.2 q 0,1.32 0.308,2.596 0.308,1.232 0.968,2.508 0.704,1.232 2.024,1.98 1.32,0.748 3.124,0.748 3.212,0 4.796,-2.376 1.584,-2.376 1.584,-5.5 v -13.464 q 0,-0.968 0.088,-1.452 0.088,-0.528 0.44,-1.1 0.352,-0.572 1.188,-0.836 0.836,-0.264 2.2,-0.264 z" /><path
       id="path36"
       style="font-weight:400;font-size:44px;font-family:'Fredoka One';text-anchor:middle;fill:#003680"
       d="m 106.98978,-25.74 q 1.144,2.332 1.144,5.192 0,2.86 -1.144,5.192 -1.144,2.288 -2.948,3.652 -1.76,1.364 -3.74,2.112 -1.979999,0.704 -3.827999,0.704 h -5.5 v 4.972 q 0,1.012 -0.088,1.54 -0.044,0.484 -0.396,1.144 -0.352,0.66 -1.188,0.924 -0.836,0.264 -2.244,0.264 -1.144,0 -1.892,-0.22 -0.748,-0.22 -1.144,-0.528 -0.396,-0.308 -0.616,-0.88 -0.176,-0.616 -0.22,-1.012 0,-0.44 0,-1.276 v -24.42 q 0,-1.012 0.044,-1.496 0.088,-0.528 0.44,-1.188 0.352,-0.66 1.188,-0.924 0.836,-0.264 2.244,-0.264 h 9.416 q 1.848,0 3.783999,0.748 1.98,0.704 3.74,2.068 1.804,1.364 2.948,3.696 z m -6.6,5.148 q 0,-1.892 -1.275999,-2.86 -1.276,-1.012 -2.64,-1.012 h -5.5 v 7.788 h 5.544 q 1.32,0 2.596,-0.968 1.275999,-0.968 1.275999,-2.948 z" /></g><rect
     id="rect9"
     height="137.80002"
     width="395.19998"
     fill="#003680"
     y="409.60001"
     x="402.39999" /><g
     id="center_1_"
     style="font-weight:400;font-size:131px;font-family:'Fredoka One';text-anchor:middle;fill:#ffffff"
     transform="translate(597.60735,528.87988)"
     aria-label="SALE"><path
       id="path39"
       style="font-weight:400;font-size:131px;font-family:'Fredoka One';text-anchor:middle;fill:#ffffff"
       d="m -159.49966,-13.493 q -3.406,-4.192 -3.406,-6.943 0,-3.93 5.633,-9.432 3.275,-3.144 6.55,-3.144 4.061,0 9.956,5.895 l 0.655,0.655 q 0.524,0.655 1.572,1.703 1.048,1.048 4.061,2.882 3.013,1.703 5.895,1.703 12.183,0 12.183,-9.956 0,-3.013 -3.406,-4.978 -3.275,-2.096 -8.253,-3.013 -4.978,-0.917 -10.742,-2.882 -5.764,-2.096 -10.742,-4.847 -4.978,-2.751 -8.384,-8.646 -3.275,-6.026 -3.275,-14.41 0,-11.528 8.515,-20.043 8.646,-8.646 23.449,-8.646 7.86,0 14.279,2.096 6.55,1.965 9.039,4.061 l 2.62,1.965 0.655,0.524 q 4.060996,3.799 4.060996,6.288 0,2.751 -3.143996,7.336 -4.454,6.55 -9.17,6.55 -2.751,0 -6.812,-2.62 -0.393,-0.262 -1.572,-1.31 -1.048,-1.048 -1.965,-1.572 -0.917,-0.655 -3.144,-1.179 -2.096,-0.655 -4.978,-0.655 -3.144,0 -6.026,2.096 -2.751,1.965 -2.751,5.24 0,3.93 3.275,6.157 3.406,2.227 8.384,3.013 4.978,0.786 10.873,2.489 5.895,1.572 10.873,3.93 4.977996,2.358 8.252996,8.253 3.406,5.764 3.406,14.41 0,8.384 -3.406,14.934 -3.406,6.419 -8.907996,9.956 -5.371,3.537 -11.135,5.24 -5.764,1.703 -11.528,1.703 -6.157,0 -11.659,-1.441 -5.502,-1.572 -9.039,-3.668 -3.406,-2.227 -6.026,-4.454 -2.489,-2.227 -3.537,-3.799 z" /><path
       id="path41"
       style="font-weight:400;font-size:131px;font-family:'Fredoka One';text-anchor:middle;fill:#ffffff"
       d="m -34.142898,-89.211 35.3699996,73.098 q 2.227,4.454 2.227,6.681 0,4.716 -7.598,8.515 -4.454,2.227 -7.4669996,2.227 -2.096,0 -3.799,-1.179 -1.572,-1.179 -2.358,-2.489 -0.655,-1.31 -1.965,-3.93 l -6.812,-14.148 h -36.287 l -6.812,14.148 q -1.31,2.62 -2.096,3.799 -0.655,1.179 -2.358,2.489 -1.572,1.179 -3.668,1.179 -3.013,0 -7.467,-2.227 -7.598,-3.668 -7.598,-8.384 0,-2.227 2.227,-6.681 0,0 35.37,-73.229 1.441,-3.013 4.323,-4.847 3.013,-1.834 6.288,-1.834 7.074,0 10.48,6.812 z m -10.611,31.44 -8.646,17.947 h 17.423 z" /><path
       id="path43"
       style="font-weight:400;font-size:131px;font-family:'Fredoka One';text-anchor:middle;fill:#ffffff"
       d="m 33.927977,-19.388 h 35.632 q 2.62,0 3.799,0.262 1.31,0.131 2.882,0.917 1.572,0.786 2.227,2.882 0.655,2.096 0.655,5.633 0,3.406 -0.655,5.502 -0.655,2.096 -2.358,3.013 -1.572,0.786 -2.882,1.048 -1.31,0.131 -3.799,0.131 h -47.16 q -3.406,0 -5.633,-0.655 -2.227,-0.655 -3.406,-1.572 -1.179,-0.917 -1.834,-2.62 -0.524,-1.834 -0.655,-3.013 0,-1.31 0,-3.799 v -72.836 q 0,-3.013 0.131,-4.454 0.262,-1.572 1.31,-3.537 1.048,-1.965 3.537,-2.751 2.489,-0.786 6.681,-0.786 3.406,0 5.633,0.655 2.227,0.655 3.406,1.572 1.179,0.917 1.703,2.751 0.655,1.703 0.655,3.013 0.131,1.179 0.131,3.668 z" /><path
       id="path45"
       style="font-weight:400;font-size:131px;font-family:'Fredoka One';text-anchor:middle;fill:#ffffff"
       d="m 110.94165,-23.187 h 40.348 q 3.013,0 4.454,0.262 1.572,0.131 3.537,1.179 1.965,1.048 2.751,3.537 0.786,2.489 0.786,6.681 0,3.406 -0.655,5.633 -0.655,2.227 -1.572,3.406 -0.917,1.179 -2.751,1.834 -1.703,0.524 -3.013,0.655 -1.179,0 -3.668,0 H 99.282648 q -3.406,0 -5.633,-0.655 -2.227,-0.655 -3.406,-1.572 -1.179,-0.917 -1.834,-2.62 -0.524,-1.834 -0.655,-3.013 0,-1.31 0,-3.799 v -72.836 q 0,-6.681 2.489,-9.039 2.489,-2.489 9.432,-2.489 h 51.614002 q 3.013,0 4.454,0.262 1.572,0.131 3.537,1.179 1.965,1.048 2.751,3.537 0.786,2.489 0.786,6.681 0,3.406 -0.655,5.633 -0.655,2.227 -1.572,3.406 -0.917,1.179 -2.751,1.834 -1.703,0.524 -3.013,0.655 -1.179,0 -3.668,0 h -40.217 v 13.231 h 25.938 q 3.013,0 4.454,0.262 1.572,0.131 3.537,1.179 1.965,1.048 2.751,3.537 0.786,2.489 0.786,6.681 0,3.406 -0.655,5.633 -0.655,2.227 -1.572,3.406 -0.917,1.179 -2.751,1.834 -1.834,0.524 -3.144,0.655 -1.179,0 -3.668,0 h -25.676 z" /></g><g
     id="center"
     style="font-weight:400;font-size:25px;font-family:Nunito;letter-spacing:2;text-anchor:middle;fill:#003680"
     transform="translate(598.70814,375.87476)"
     aria-label="LIMITED TIME OFFER"><path
       id="path48"
       style="font-weight:400;font-size:25px;font-family:Nunito;letter-spacing:2;text-anchor:middle;fill:#003680"
       d="m -135.67559,0 q -0.425,0 -0.725,-0.25 -0.275,-0.275 -0.275,-0.7 V -16.7 q 0,-0.475 0.275,-0.75 0.275,-0.3 0.75,-0.3 0.475,0 0.75,0.3 0.275,0.275 0.275,0.75 v 14.95 h 8.075 q 0.45,0 0.7,0.225 0.25,0.225 0.25,0.65 0,0.425 -0.25,0.65 -0.25,0.225 -0.7,0.225 z" /><path
       id="path50"
       style="font-weight:400;font-size:25px;font-family:Nunito;letter-spacing:2;text-anchor:middle;fill:#003680"
       d="m -120.17402,0.125 q -0.475,0 -0.75,-0.275 -0.275,-0.3 -0.275,-0.775 V -16.7 q 0,-0.475 0.275,-0.75 0.275,-0.3 0.75,-0.3 0.475,0 0.75,0.3 0.275,0.275 0.275,0.75 v 15.775 q 0,0.475 -0.275,0.775 -0.275,0.275 -0.75,0.275 z" /><path
       id="path52"
       style="font-weight:400;font-size:25px;font-family:Nunito;letter-spacing:2;text-anchor:middle;fill:#003680"
       d="m -97.152539,-17.75 q 0.475,0 0.725,0.3 0.275,0.275 0.275,0.75 v 15.825 q 0,0.45 -0.25,0.725 -0.25,0.275 -0.7,0.275 -0.45,0 -0.675,-0.275 -0.225,-0.275 -0.225,-0.725 V -13.65 l -5.425001,10.4 q -0.35,0.725 -1.025,0.725 -0.65,0 -1.025,-0.725 l -5.45,-10.275 v 12.65 q 0,0.45 -0.25,0.725 -0.225,0.275 -0.675,0.275 -0.45,0 -0.7,-0.275 -0.25,-0.275 -0.25,-0.725 V -16.7 q 0,-0.475 0.275,-0.75 0.275,-0.3 0.75,-0.3 0.625,0 1,0.725 l 6.35,12.175 6.275001,-12.175 q 0.2,-0.4 0.425,-0.55 0.25,-0.175 0.575,-0.175 z" /><path
       id="path54"
       style="font-weight:400;font-size:25px;font-family:Nunito;letter-spacing:2;text-anchor:middle;fill:#003680"
       d="m -88.732617,0.125 q -0.475,0 -0.75,-0.275 -0.275,-0.3 -0.275,-0.775 V -16.7 q 0,-0.475 0.275,-0.75 0.275,-0.3 0.75,-0.3 0.475,0 0.75,0.3 0.275,0.275 0.275,0.75 v 15.775 q 0,0.475 -0.275,0.775 -0.275,0.275 -0.75,0.275 z" /><path
       id="path56"
       style="font-weight:400;font-size:25px;font-family:Nunito;letter-spacing:2;text-anchor:middle;fill:#003680"
       d="m -76.061133,0.125 q -0.475,0 -0.775,-0.275 -0.275,-0.3 -0.275,-0.775 v -14.95 h -5.375 q -0.45,0 -0.7,-0.225 -0.25,-0.225 -0.25,-0.65 0,-0.425 0.25,-0.65 0.25,-0.225 0.7,-0.225 h 12.825 q 0.45,0 0.7,0.225 0.25,0.225 0.25,0.65 0,0.425 -0.25,0.65 -0.25,0.225 -0.7,0.225 h -5.375 v 14.95 q 0,0.475 -0.275,0.775 -0.275,0.275 -0.75,0.275 z" /><path
       id="path58"
       style="font-weight:400;font-size:25px;font-family:Nunito;letter-spacing:2;text-anchor:middle;fill:#003680"
       d="m -63.369727,0 q -0.475,0 -0.775,-0.275 -0.275,-0.275 -0.275,-0.725 v -15.625 q 0,-0.45 0.275,-0.725 0.3,-0.275 0.775,-0.275 h 9.35 q 0.45,0 0.7,0.225 0.25,0.225 0.25,0.625 0,0.4 -0.25,0.625 -0.25,0.225 -0.7,0.225 h -8.375 V -9.8 h 7.875 q 0.45,0 0.7,0.225 0.25,0.225 0.25,0.625 0,0.4 -0.25,0.625 -0.25,0.225 -0.7,0.225 h -7.875 v 6.4 h 8.375 q 0.45,0 0.7,0.225 0.25,0.2 0.25,0.625 0,0.4 -0.25,0.625 -0.25,0.225 -0.7,0.225 z" /><path
       id="path60"
       style="font-weight:400;font-size:25px;font-family:Nunito;letter-spacing:2;text-anchor:middle;fill:#003680"
       d="m -46.818945,0 q -0.475,0 -0.775,-0.275 -0.275,-0.275 -0.275,-0.725 v -15.625 q 0,-0.45 0.275,-0.725 0.3,-0.275 0.775,-0.275 h 4.875 q 4.225,0 6.525,2.3 2.325,2.275 2.325,6.5 0,4.225 -2.325,6.525 -2.325,2.3 -6.525,2.3 z m 4.75,-1.75 q 6.85,0 6.85,-7.075 0,-7.05 -6.85,-7.05 h -3.75 V -1.75 Z" /><path
       id="path62"
       style="font-weight:400;font-size:25px;font-family:Nunito;letter-spacing:2;text-anchor:middle;fill:#003680"
       d="m -13.666602,0.125 q -0.475,0 -0.775,-0.275 -0.275,-0.3 -0.275,-0.775 v -14.95 h -5.375 q -0.45,0 -0.7,-0.225 -0.25,-0.225 -0.25,-0.65 0,-0.425 0.25,-0.65 0.25,-0.225 0.7,-0.225 h 12.8250004 q 0.45,0 0.7,0.225 0.25,0.225 0.25,0.65 0,0.425 -0.25,0.65 -0.25,0.225 -0.7,0.225 h -5.3750004 v 14.95 q 0,0.475 -0.275,0.775 -0.275,0.275 -0.75,0.275 z" /><path
       id="path64"
       style="font-weight:400;font-size:25px;font-family:Nunito;letter-spacing:2;text-anchor:middle;fill:#003680"
       d="m -1.0001953,0.125 q -0.475,0 -0.75,-0.275 -0.275,-0.3 -0.275,-0.775 V -16.7 q 0,-0.475 0.275,-0.75 0.275,-0.3 0.75,-0.3 0.47499999,0 0.74999999,0.3 0.275,0.275 0.275,0.75 v 15.775 q 0,0.475 -0.275,0.775 -0.275,0.275 -0.74999999,0.275 z" /><path
       id="path66"
       style="font-weight:400;font-size:25px;font-family:Nunito;letter-spacing:2;text-anchor:middle;fill:#003680"
       d="m 22.021289,-17.75 q 0.475,0 0.725,0.3 0.275,0.275 0.275,0.75 v 15.825 q 0,0.45 -0.25,0.725 -0.25,0.275 -0.7,0.275 -0.45,0 -0.675,-0.275 -0.225,-0.275 -0.225,-0.725 V -13.65 l -5.425,10.4 q -0.35,0.725 -1.025,0.725 -0.65,0 -1.025,-0.725 L 8.2462891,-13.525 v 12.65 q 0,0.45 -0.25,0.725 -0.225,0.275 -0.675,0.275 -0.45,0 -0.7,-0.275 -0.25,-0.275 -0.25,-0.725 V -16.7 q 0,-0.475 0.275,-0.75 0.275,-0.3 0.75,-0.3 0.625,0 1,0.725 l 6.3499999,12.175 6.275,-12.175 q 0.2,-0.4 0.425,-0.55 0.25,-0.175 0.575,-0.175 z" /><path
       id="path68"
       style="font-weight:400;font-size:25px;font-family:Nunito;letter-spacing:2;text-anchor:middle;fill:#003680"
       d="m 30.466211,0 q -0.475,0 -0.775,-0.275 -0.275,-0.275 -0.275,-0.725 v -15.625 q 0,-0.45 0.275,-0.725 0.3,-0.275 0.775,-0.275 h 9.35 q 0.45,0 0.7,0.225 0.25,0.225 0.25,0.625 0,0.4 -0.25,0.625 -0.25,0.225 -0.7,0.225 h -8.375 V -9.8 h 7.875 q 0.45,0 0.7,0.225 0.25,0.225 0.25,0.625 0,0.4 -0.25,0.625 -0.25,0.225 -0.7,0.225 h -7.875 v 6.4 h 8.375 q 0.45,0 0.7,0.225 0.25,0.2 0.25,0.625 0,0.4 -0.25,0.625 -0.25,0.225 -0.7,0.225 z" /><path
       id="path70"
       style="font-weight:400;font-size:25px;font-family:Nunito;letter-spacing:2;text-anchor:middle;fill:#003680"
       d="m 61.787305,0.2 q -2.45,0 -4.275,-1.1 -1.8,-1.1 -2.775,-3.125 -0.975,-2.025 -0.975,-4.775 0,-2.775 0.95,-4.8 0.975,-2.05 2.775,-3.125 1.825,-1.1 4.3,-1.1 2.475,0 4.275,1.1 1.825,1.075 2.775,3.125 0.975,2.025 0.975,4.775 0,2.75 -0.975,4.8 -0.975,2.025 -2.8,3.125 -1.8,1.1 -4.25,1.1 z m 0,-1.75 q 2.8,0 4.35,-1.875 1.575,-1.9 1.575,-5.4 0,-3.5 -1.55,-5.375 -1.55,-1.875 -4.375,-1.875 -2.8,0 -4.375,1.9 -1.55,1.875 -1.55,5.35 0,3.475 1.55,5.375 1.575,1.9 4.375,1.9 z" /><path
       id="path72"
       style="font-weight:400;font-size:25px;font-family:Nunito;letter-spacing:2;text-anchor:middle;fill:#003680"
       d="m 76.529102,0.125 q -0.475,0 -0.75,-0.275 -0.275,-0.3 -0.275,-0.775 v -15.7 q 0,-0.45 0.275,-0.725 0.3,-0.275 0.775,-0.275 h 9.1 q 0.45,0 0.7,0.225 0.25,0.225 0.25,0.65 0,0.4 -0.25,0.625 -0.25,0.225 -0.7,0.225 h -8.125 v 6.075 h 7.625 q 0.45,0 0.7,0.225 0.25,0.225 0.25,0.65 0,0.4 -0.25,0.625 -0.25,0.225 -0.7,0.225 h -7.625 v 7.175 q 0,0.475 -0.275,0.775 -0.25,0.275 -0.725,0.275 z" /><path
       id="path74"
       style="font-weight:400;font-size:25px;font-family:Nunito;letter-spacing:2;text-anchor:middle;fill:#003680"
       d="m 92.445117,0.125 q -0.475,0 -0.75,-0.275 -0.275,-0.3 -0.275,-0.775 v -15.7 q 0,-0.45 0.275,-0.725 0.3,-0.275 0.775,-0.275 h 9.100003 q 0.45,0 0.7,0.225 0.25,0.225 0.25,0.65 0,0.4 -0.25,0.625 -0.25,0.225 -0.7,0.225 h -8.125003 v 6.075 h 7.625003 q 0.45,0 0.7,0.225 0.25,0.225 0.25,0.65 0,0.4 -0.25,0.625 -0.25,0.225 -0.7,0.225 h -7.625003 v 7.175 q 0,0.475 -0.275,0.775 -0.25,0.275 -0.725,0.275 z" /><path
       id="path76"
       style="font-weight:400;font-size:25px;font-family:Nunito;letter-spacing:2;text-anchor:middle;fill:#003680"
       d="m 108.38613,0 q -0.475,0 -0.775,-0.275 -0.275,-0.275 -0.275,-0.725 v -15.625 q 0,-0.45 0.275,-0.725 0.3,-0.275 0.775,-0.275 h 9.35 q 0.45,0 0.7,0.225 0.25,0.225 0.25,0.625 0,0.4 -0.25,0.625 -0.25,0.225 -0.7,0.225 h -8.375 V -9.8 h 7.875 q 0.45,0 0.7,0.225 0.25,0.225 0.25,0.625 0,0.4 -0.25,0.625 -0.25,0.225 -0.7,0.225 h -7.875 v 6.4 h 8.375 q 0.45,0 0.7,0.225 0.25,0.2 0.25,0.625 0,0.4 -0.25,0.625 -0.25,0.225 -0.7,0.225 z" /><path
       id="path78"
       style="font-weight:400;font-size:25px;font-family:Nunito;letter-spacing:2;text-anchor:middle;fill:#003680"
       d="m 137.33691,-1.275 q 0.175,0.275 0.175,0.575 0,0.375 -0.3,0.625 -0.275,0.225 -0.65,0.225 -0.575,0 -0.9,-0.5 l -3.35,-5.3 q -0.65,-1.025 -1.35,-1.4 -0.7,-0.4 -1.9,-0.4 h -3.15 v 6.525 q 0,0.475 -0.275,0.775 -0.275,0.275 -0.725,0.275 -0.475,0 -0.75,-0.275 -0.275,-0.3 -0.275,-0.775 v -15.7 q 0,-0.45 0.275,-0.725 0.3,-0.275 0.775,-0.275 h 6.2 q 2.875,0 4.375,1.275 1.525,1.275 1.525,3.75 0,2.1 -1.225,3.375 -1.2,1.275 -3.45,1.55 0.625,0.2 1.125,0.65 0.5,0.45 1,1.25 z m -6.375,-7.875 q 2.05,0 3.05,-0.85 1.025,-0.85 1.025,-2.575 0,-1.7 -1,-2.525 -1,-0.825 -3.075,-0.825 h -5.05 v 6.775 z" /></g><g
     id="g15"
     transform="matrix(0.5293,0,0,0.5293,547.57013,229.2626)"><path
       style="fill:#ffffff"
       id="path13"
       d="m 46.02,44.611 -0.0018,0.0062 c -0.09378,-0.01415 -0.20094,0.02424 -0.23828,0.08403 -0.03733,0.0597 -1.3609,7.3874 -2.9434,16.285 -1.5817,8.8986 -2.8592,16.229 -2.8359,16.289 0.02326,0.0597 4.5288,3.4167 10.012,7.459 5.4836,4.043 9.9783,7.3764 9.9883,7.4063 0.01,0.03069 -4.4077,2.1835 -9.8184,4.7852 -5.4106,2.6017 -9.8755,4.7733 -9.9219,4.8281 -0.04564,0.0548 -0.06165,0.16785 -0.03511,0.25 0.02653,0.0821 3.0785,2.0914 6.7812,4.4648 3.7029,2.3735 6.8495,4.3746 6.9922,4.4492 l 0.25781,0.13672 0.9961,-0.27539 c 0.5477,-0.15185 3.9968,-1.1034 7.6641,-2.1133 3.6672,-1.0099 6.6759,-1.8228 6.6875,-1.8086 0.0107,0.0149 3.4721,6.4472 7.6895,14.297 4.2174,7.8488 7.668,14.316 7.668,14.371 0,0.0564 -0.67257,0.63087 -1.4941,1.2774 -0.82156,0.64563 -1.5029,1.1806 -1.5137,1.1914 -0.01,0.0104 -0.65404,2.1086 -1.4316,4.6621 -0.77841,2.5535 -1.4042,4.7044 -1.3926,4.7832 0.01238,0.0781 1.9408,1.9 4.2852,4.0469 l 4.2617,3.9024 h 24.693 l 3.1035,-2.8418 c 1.7061,-1.5634 3.6323,-3.3262 4.2812,-3.918 0.64895,-0.59167 1.1797,-1.1298 1.1797,-1.1953 0,-0.0655 -0.63648,-2.2152 -1.4141,-4.7754 -0.77759,-2.5593 -1.4403,-4.6781 -1.4727,-4.707 -0.0324,-0.0291 -0.71252,-0.56373 -1.5117,-1.1895 -0.79832,-0.6257 -1.4622,-1.166 -1.4746,-1.1992 -0.0119,-0.0332 3.439,-6.4989 7.668,-14.369 4.2297,-7.8696 7.6985,-14.321 7.7109,-14.336 0.0119,-0.0149 3.4674,0.92082 7.6797,2.0801 l 7.6582,2.1094 2.2812,-1.459 c 1.2548,-0.80329 4.392,-2.8041 6.9688,-4.4473 2.5775,-1.6432 4.7254,-3.0507 4.7734,-3.127 0.0606,-0.097 0.0581,-0.17004 -0.008,-0.24804 -0.0506,-0.0606 -4.5171,-2.2382 -9.9277,-4.8398 -5.4106,-2.6017 -9.8379,-4.751 -9.8379,-4.7734 -8.1e-4,-0.02326 1.2761,-0.98175 2.8379,-2.1328 1.5618,-1.1502 6.0336,-4.444 9.9355,-7.3203 3.9029,-2.8763 7.1384,-5.2965 7.1914,-5.377 0.0771,-0.11867 -0.46623,-3.3194 -2.7559,-16.207 -1.5684,-8.8322 -2.8826,-16.151 -2.9199,-16.266 -0.0473,-0.14357 -0.12761,-0.20704 -0.26367,-0.20704 -0.10791,0 -0.23083,0.05696 -0.27149,0.125 -0.0406,0.06802 -2.0291,6.2978 -4.4199,13.844 -2.39,7.5459 -4.363,13.736 -4.3828,13.756 -0.0199,0.02079 -5.1496,1.586 -11.398,3.4805 l -11.359,3.4453 -7.4687,-1.7148 -7.4688,-1.7148 -3.5898,-2.3535 c -1.9735,-1.2937 -3.6242,-2.3535 -3.6699,-2.3535 -0.04564,0 -1.6995,1.0608 -3.6738,2.3555 l -3.5879,2.3477 -7.4473,1.7148 -7.4492,1.7129 -4.377,-1.3242 c -2.4075,-0.72862 -6.2247,-1.8837 -8.4844,-2.5684 -2.2588,-0.6838 -5.4148,-1.6404 -7.0098,-2.125 -1.5949,-0.48382 -2.9145,-0.89384 -2.9336,-0.91211 -0.01822,-0.0191 -1.9896,-6.2089 -4.3789,-13.754 -2.39,-7.5452 -4.3774,-13.774 -4.418,-13.842 -0.04069,-0.06802 -0.15038,-0.13627 -0.24414,-0.1504 z m 107.65,2.4648 0.0606,0.65235 c 0.0324,0.35767 0.11614,6.3782 0.1875,13.379 0.0714,7.0016 0.11149,12.748 0.0898,12.77 -0.0215,0.02158 -1.8952,-0.30103 -4.1641,-0.7168 -2.2679,-0.41577 -4.1367,-0.76744 -4.1524,-0.7832 -0.0158,-0.01574 1.7731,-5.7147 3.9746,-12.664 z m -107.28,0.117 c 0.01079,0.0027 0.02388,0.02485 0.03715,0.06448 0.03901,0.11368 1.8433,5.8054 4.0117,12.648 2.1684,6.8431 3.9296,12.456 3.9121,12.475 -0.01742,0.01742 -1.8868,0.37022 -4.1523,0.78516 -2.2647,0.41577 -4.1351,0.73612 -4.1582,0.71289 -0.02326,-0.02326 0.01654,-5.7522 0.08792,-12.73 0.07217,-6.9783 0.15117,-13.004 0.17774,-13.393 0.02795,-0.40392 0.05165,-0.57097 0.08403,-0.56249 z m -0.76758,1.7324 c 0.0191,0.0191 -0.0283,5.6809 -0.10546,12.582 -0.08879,8.0314 -0.16842,12.575 -0.2207,12.625 -0.04564,0.04316 -1.0845,0.60775 -2.3086,1.2559 -1.224,0.64813 -2.2379,1.1661 -2.252,1.1504 -0.01495,-0.01574 1.0719,-6.1897 2.4121,-13.721 1.3402,-7.531 2.4375,-13.746 2.4375,-13.811 8.31e-4,-0.06474 0.01804,-0.1011 0.03706,-0.08199 z m 108.81,0.10742 c 0.0257,0.08712 1.1396,6.3036 2.4766,13.816 1.3361,7.5135 2.4195,13.673 2.4062,13.688 -0.0134,0.01495 -1.0457,-0.51355 -2.293,-1.1758 l -2.2695,-1.2051 -0.0527,-0.35743 c -0.0291,-0.19751 -0.0957,-4.8599 -0.14649,-10.359 -0.0506,-5.5004 -0.11101,-11.026 -0.13086,-12.281 -0.0208,-1.2556 -0.0157,-2.2113 0.01,-2.125 z m -54.426,22.877 c 0.0589,-0.0035 1.5899,0.97008 3.4023,2.1602 1.8124,1.19 3.2887,2.1892 3.2813,2.2207 -0.009,0.03237 -1.4942,2.5401 -3.3008,5.5742 -1.8066,3.0348 -3.3214,5.5176 -3.3652,5.5176 -0.04405,0 -1.5721,-2.5024 -3.3945,-5.5605 l -3.3125,-5.5606 2.627,-1.7285 c 1.4448,-0.95018 2.9259,-1.9278 3.291,-2.1719 0.36514,-0.24481 0.71257,-0.44869 0.77148,-0.45117 z m 45.244,1.0762 h 0.002 c 0.0697,-0.0035 1.9077,0.31977 4.0859,0.71875 2.1793,0.39916 3.9617,0.7463 3.9609,0.76953 -8.3e-4,0.02406 -5.4753,2.8444 -12.164,6.2676 -6.6887,3.4232 -12.206,6.2348 -12.264,6.248 -0.0564,0.01327 -1.4399,-1.5801 -3.0723,-3.541 -1.6332,-1.9602 -2.9675,-3.5943 -2.9668,-3.6309 8.4e-4,-0.03653 0.4794,-0.21161 1.0644,-0.38672 0.58505,-0.17511 2.6524,-0.79836 4.5918,-1.3867 1.9402,-0.58754 5.2078,-1.5798 7.2617,-2.2031 2.0539,-0.62322 5.0029,-1.5181 6.5547,-1.9902 1.5509,-0.47107 2.8758,-0.86062 2.9453,-0.86523 z m -90.562,0.0062 c 0.10042,-0.0044 5.1979,1.5085 11.328,3.3633 6.1302,1.8548 11.169,3.3956 11.199,3.4238 0.02989,0.02742 -1.2845,1.6566 -2.9219,3.6191 -1.6364,1.9626 -3.0257,3.5684 -3.0879,3.5684 -0.06138,0 -5.5895,-2.8014 -12.283,-6.2246 -6.6937,-3.4232 -12.173,-6.2461 -12.174,-6.2734 -0.0018,-0.02821 0.15738,-0.07438 0.35156,-0.10351 0.19418,-0.02822 1.9395,-0.348 3.8789,-0.70899 1.9402,-0.36183 3.6093,-0.65991 3.709,-0.66406 z m -8.9629,1.6621 0.89648,0.48243 c 0.5029,0.26472 6.1234,3.1426 12.49,6.3965 6.3675,3.2539 11.607,5.9422 11.645,5.9746 0.03732,0.03237 -1.2785,1.6801 -2.9258,3.6602 -1.6299,1.9806 -3.0134,3.5996 -3.0566,3.5996 -0.04396,0 -4.5885,-3.3246 -10.1,-7.3867 -5.5102,-4.0621 -10.842,-7.9927 -11.848,-8.7363 -1.005,-0.74356 -1.838,-1.3798 -1.8496,-1.4121 -0.01168,-0.03317 1.0514,-0.62542 2.3633,-1.3184 z m 108.61,0.0098 1.0371,0.53906 c 0.57095,0.29544 1.6448,0.85861 2.3867,1.252 0.74189,0.39418 1.3378,0.74752 1.3262,0.7832 -0.0119,0.03653 -5.3617,4.0032 -11.889,8.8164 -6.526,4.8132 -11.893,8.7433 -11.926,8.7324 -0.0332,-0.01079 -1.4104,-1.6414 -3.0586,-3.623 l -2.998,-3.6016 0.23828,-0.1289 c 0.13031,-0.07138 5.7802,-2.9729 12.559,-6.4492 z m -46.973,1.8848 c 0.0473,-8.31e-4 3.1381,0.70029 6.8691,1.5566 3.7311,0.85641 6.7841,1.5763 6.7832,1.5996 0,0.02326 -4.4338,1.7398 -9.8535,3.8145 -5.4198,2.0746 -9.9779,3.8215 -10.129,3.8828 l -0.27344,0.10938 0.10742,-0.19726 c 0.0597,-0.10872 1.5269,-2.576 3.2598,-5.4805 1.7327,-2.9054 3.189,-5.2835 3.2363,-5.2852 z m -14.766,0.0097 c 0.13693,-0.0062 0.75355,0.97262 3.3203,5.2754 1.7327,2.9045 3.1967,5.3683 3.2539,5.4746 l 0.10352,0.19141 -0.48242,-0.1836 c -0.25,-0.1 -4.805,-1.845 -10.107,-3.876 -5.303,-2.032 -9.642,-3.711 -9.643,-3.735 -8.32e-4,-0.02326 0.62437,-0.18594 1.3887,-0.35937 0.76431,-0.17428 3.7801,-0.86976 6.7012,-1.5469 2.9211,-0.67717 5.3876,-1.2361 5.4805,-1.2402 z m 29.131,3.5664 c 0.0341,-0.0027 0.0625,2.9582 0.0625,6.5781 v 6.582 l -9.2207,6.7012 c -5.0712,3.6863 -9.2275,6.6898 -9.2383,6.6758 -0.0104,-0.0135 -0.6797,-4.0796 -1.4863,-9.0313 -0.8058,-4.9526 -1.4637,-9.0786 -1.4629,-9.1699 0.002,-0.14357 1.4386,-0.71702 10.643,-4.248 5.853,-2.2456 10.669,-4.0854 10.703,-4.0879 z m -43.318,0.01371 c 0.05723,0.0199 4.8746,1.8625 10.705,4.0957 9.1791,3.5162 10.599,4.083 10.6,4.2266 8.31e-4,0.09129 -0.65821,4.2173 -1.4648,9.1699 -0.80662,4.9517 -1.4744,9.0172 -1.4844,9.0312 -0.01,0.0134 -3.935,-2.8216 -8.7207,-6.2988 -4.7851,-3.4732 -8.9341,-6.4878 -9.2207,-6.6953 l -0.508,-0.378 v -6.5898 c 0,-5.2356 0.02132,-6.5829 0.10351,-6.5547 z m -0.78906,0.41016 c 0.01167,0.0097 0.02149,2.8442 0.02149,6.3223 v 6.3359 l -5.8809,2.3789 c -3.2339,1.3079 -5.9162,2.377 -5.9609,2.377 -0.04564,0 -0.18862,-0.58969 -0.31641,-1.3125 l -0.2246,-1.3145 6.1758,-7.3984 c 3.3905,-4.0632 6.1653,-7.3782 6.1855,-7.3887 z m 44.898,0.02344 c 0.0356,0.03503 2.826,3.3719 6.2051,7.418 l 6.1465,7.3594 -0.25391,1.2598 c -0.1394,0.69293 -0.27819,1.2849 -0.31055,1.3164 -0.0315,0.03158 -2.7119,-1.0194 -5.9551,-2.334 l -5.8945,-2.3906 v -6.3457 c 0,-3.4893 0.0285,-6.3154 0.0625,-6.2832 z m -22.465,9.5918 c 0.0233,0 0.64396,3.7248 1.3809,8.2773 0.73692,4.5526 1.3235,8.3058 1.3027,8.3398 -0.0207,0.034 -1.228,0.0625 -2.6836,0.0625 -1.4556,0 -2.6609,-0.0285 -2.6816,-0.0625 -0.0207,-0.0341 0.56387,-3.7872 1.3008,-8.3398 0.73692,-4.5526 1.3585,-8.2773 1.3809,-8.2773 z m -39.385,2.418 0.36719,0.26367 c 0.20166,0.14439 1.0798,0.79074 1.9512,1.4355 l 1.584,1.1719 0.26367,1.3594 c 0.14439,0.74688 0.25777,1.3645 0.25195,1.3711 -0.0062,0.0062 -5.0086,0.70916 -11.117,1.5605 -6.1078,0.85226 -11.145,1.5353 -11.193,1.5195 -0.04732,-0.0158 0.39488,-0.25857 0.98242,-0.53907 0.58754,-0.28049 1.61,-0.77145 2.2715,-1.0918 0.6614,-0.32114 4.2254,-2.0371 7.9199,-3.8164 z m 78.803,0.02149 c 0.0241,0.0107 4.0734,1.9578 8.9961,4.3262 4.9227,2.3693 8.9141,4.3191 8.8692,4.334 -0.0448,0.0149 -4.5208,-0.59083 -9.9473,-1.3477 -5.4256,-0.75683 -10.425,-1.4553 -11.109,-1.5508 -0.68464,-0.09543 -1.2492,-0.17777 -1.2559,-0.18359 -0.006,-0.0062 0.10758,-0.62031 0.25195,-1.3672 l 0.26171,-1.3594 1.9453,-1.4356 c 1.0697,-0.7892 1.9641,-1.4276 1.9883,-1.416 z m -61.969,1.3027 c 0.03405,-0.0035 0.06253,0.62643 0.06253,1.4023 v 1.4102 l -0.31055,0.20117 c -0.17095,0.1112 -1.8012,1.0454 -3.6211,2.0762 -1.8208,1.0315 -3.3452,1.873 -3.3867,1.873 -0.04237,0 -0.97327,-0.53073 -2.0703,-1.1797 -1.5684,-0.9286 -1.9613,-1.1938 -1.8418,-1.2461 0.08385,-0.03653 2.6166,-1.0714 5.6289,-2.2988 3.0124,-1.2274 5.505,-2.2341 5.5391,-2.2383 z m 45.172,0.02538 c 0.073,0.02742 2.5854,1.0449 5.582,2.2598 2.9975,1.2141 5.4989,2.2352 5.5586,2.2676 0.0706,0.03821 -0.60918,0.48418 -1.8789,1.2344 -1.0938,0.64646 -2.024,1.1758 -2.0664,1.1758 -0.0415,0 -0.82087,-0.42245 -1.7305,-0.93945 -0.91035,-0.51701 -2.438,-1.3807 -3.3965,-1.9219 -0.95849,-0.54025 -1.8473,-1.0535 -1.9727,-1.1406 l -0.22657,-0.1582 v -1.4141 c 0,-1.2597 0.0124,-1.4089 0.13087,-1.3633 z m -0.77344,0.13868 c 0.034,-0.0027 0.0605,0.62383 0.0605,1.3906 v 1.3945 l -3.8828,4.9316 c -3.0796,3.912 -4.2666,5.4922 -5.7305,7.6309 -1.0158,1.483 -1.8852,2.6973 -1.9316,2.6973 -0.0456,0 -1.57,-1.0826 -3.3906,-2.4062 -1.8199,-1.3236 -3.3108,-2.4268 -3.3125,-2.4492 -0.003,-0.0233 0.15319,-0.15184 0.34571,-0.28711 0.19336,-0.13447 2.3693,-1.7074 4.834,-3.4941 2.4647,-1.7875 6.3851,-4.6341 8.7129,-6.3262 2.3278,-1.6928 4.2609,-3.0787 4.2949,-3.082 z m -43.684,0.0062 0.0035,0.0035 c 0.04237,0.01495 4.1482,2.9762 9.125,6.582 4.9766,3.6057 9.0497,6.5744 9.0488,6.5977 -8.22e-4,0.0224 -1.4903,1.1256 -3.3086,2.4492 -1.8173,1.3236 -3.3445,2.4062 -3.3926,2.4062 -0.04812,0 -0.9179,-1.2143 -1.9336,-2.6973 -1.4672,-2.1436 -2.6442,-3.7102 -5.7305,-7.6289 l -3.8887,-4.9336 v -1.4043 c 0,-0.82405 0.0314,-1.3916 0.07615,-1.375 z m 44.139,3.3086 c 0.0119,0 1.517,0.84571 3.3418,1.8789 1.8248,1.03319 3.3164,1.9051 3.3164,1.9375 0,0.0324 -3.0426,1.171 -6.7637,2.5312 -3.7211,1.3602 -6.778,2.4589 -6.793,2.4414 -0.0134,-0.0182 1.5278,-2.0048 3.4258,-4.4121 1.8987,-2.4075 3.4603,-4.3761 3.4727,-4.3769 z m -44.609,0.02538 v 0.0018 c 0.03158,0.008 1.6026,1.9745 3.4922,4.3711 1.8896,2.3959 3.4254,4.3702 3.4121,4.3867 -0.01327,0.0165 -3.0702,-1.082 -6.793,-2.4414 -3.722,-1.3593 -6.7676,-2.4963 -6.7676,-2.5254 0,-0.0298 1.4847,-0.89728 3.2988,-1.9297 1.8141,-1.0323 3.3258,-1.8715 3.3574,-1.8633 z m -12.611,1.3945 c 0.07881,-0.0062 0.20828,0.08869 0.28711,0.20898 l 0.14258,0.21875 -0.2461,0.2168 c -0.13527,0.11949 -2.3561,2.093 -4.9336,4.3867 l -4.6875,4.1719 -0.73828,1.1191 c -0.4058,0.6166 -0.76676,1.1211 -0.80078,1.1211 -0.03485,0 -2.1666,-1.3491 -4.7383,-2.998 -2.5726,-1.6481 -5.4152,-3.4682 -6.3164,-4.0449 l -1.6387,-1.0488 0.26954,-0.0606 c 0.14854,-0.034 4.5833,-0.66289 9.8555,-1.3965 5.2721,-0.73277 10.442,-1.4556 11.492,-1.6074 1.0498,-0.15186 1.9739,-0.2813 2.0527,-0.28711 z m 69.729,0.02538 c 0.0637,-0.02494 0.14374,-0.01964 0.27734,0.0018 0.16847,0.02653 5.405,0.75787 11.635,1.625 6.2298,0.86639 11.448,1.6027 11.596,1.6367 l 0.26758,0.0625 -1.1797,0.75976 c -0.64978,0.41824 -3.491,2.2394 -6.3125,4.0469 -2.8206,1.8066 -5.1587,3.2852 -5.1953,3.2852 -0.0373,0 -0.39888,-0.50534 -0.80469,-1.1211 l -0.73632,-1.1211 -4.6797,-4.1699 c -2.5735,-2.2938 -4.7924,-4.2673 -4.9336,-4.3867 l -0.25587,-0.21485 0.14649,-0.22656 c 0.0647,-0.09876 0.11208,-0.15284 0.17578,-0.17774 z m -68.637,0.42969 0.28711,0.17578 c 0.15768,0.09709 1.0063,0.60496 1.8867,1.127 l 1.6016,0.94726 3.3047,4.5547 3.3047,4.5566 2.5098,7.3867 c 1.3809,4.0621 3.0126,8.8597 3.625,10.662 0.61244,1.8024 1.0817,3.2401 1.041,3.1953 -0.04069,-0.0448 -3.8759,-7.1601 -8.5215,-15.809 -4.6456,-8.6496 -8.5795,-15.968 -8.7422,-16.262 z m 67.48,0.15039 v 0.0018 c 0.0165,0.01574 -3.881,7.3051 -8.6602,16.199 -4.7792,8.8937 -8.7211,16.207 -8.7617,16.252 -0.0406,0.0448 0.42888,-1.3976 1.043,-3.2051 0.61409,-1.8082 2.2457,-6.6058 3.625,-10.662 l 2.5078,-7.375 3.3008,-4.5527 3.3008,-4.5527 1.8086,-1.0664 c 0.99417,-0.58755 1.8203,-1.0557 1.8359,-1.0391 z m 0.59961,0.48047 c 0.0356,0.01327 1.9311,1.6873 4.2148,3.7188 2.2838,2.0306 4.1437,3.7013 4.1328,3.7129 -0.0104,0.0119 -2.3654,-0.79866 -5.2324,-1.8027 -2.8672,-1.0033 -5.2226,-1.8353 -5.2324,-1.8476 -0.0104,-0.0119 0.41505,-0.82374 0.94532,-1.8047 0.53111,-0.98173 0.99699,-1.8336 1.0352,-1.8926 0.0382,-0.0597 0.10105,-0.09812 0.13672,-0.08403 z m -68.504,0.01565 c 0.04564,0.01167 0.53716,0.8596 1.0898,1.8828 0.64978,1.2016 0.9727,1.88 0.91211,1.9141 -0.05059,0.0298 -2.4048,0.8609 -5.2305,1.8477 -2.8265,0.98588 -5.1464,1.783 -5.1563,1.7715 -0.0091,-0.0119 1.8546,-1.6886 4.1426,-3.7285 2.287,-2.039 4.1965,-3.6999 4.2422,-3.6875 z m 63.1,2.084 c 0.0158,0.0149 -1.2857,1.8343 -2.8906,4.0449 l -2.918,4.0215 -3.8516,-1.541 c -2.1187,-0.84727 -3.8516,-1.5601 -3.8516,-1.5859 8.2e-4,-0.0249 0.51407,-0.23132 1.1406,-0.45704 0.62736,-0.22655 3.6618,-1.334 6.7422,-2.4609 3.0812,-1.127 5.6131,-2.0355 5.6289,-2.0215 z m -57.744,0.004 c 0,-0.0241 0.23211,0.0387 0.51758,0.14258 0.28547,0.10373 3.3298,1.2156 6.7637,2.4688 3.4339,1.2531 6.2441,2.297 6.2441,2.3203 8.31e-4,0.024 -1.6137,0.69411 -3.5879,1.4883 -1.9742,0.79336 -3.7057,1.4919 -3.8477,1.5508 l -0.25782,0.10547 -2.916,-4.0156 c -1.604,-2.2091 -2.916,-4.0356 -2.916,-4.0606 z m 60.738,2.2754 c 0.0273,-8.2e-4 2.7459,0.93962 6.043,2.0898 l 5.9941,2.0918 0.54687,0.82228 c 0.30042,0.45226 0.53134,0.83862 0.50977,0.85936 -0.0207,0.0208 -2.2928,-0.58329 -5.0488,-1.3418 -2.7551,-0.75849 -5.9046,-1.6234 -7,-1.9238 -1.0954,-0.30123 -2.0223,-0.57534 -2.0605,-0.60937 -0.0389,-0.0332 0.16375,-0.49595 0.44922,-1.0254 0.28548,-0.53029 0.53984,-0.9629 0.5664,-0.9629 z m -63.76,0.006 c 0.049,-0.003 0.32391,0.42675 0.60938,0.95703 0.28546,0.52944 0.48821,0.99167 0.44922,1.0273 -0.03821,0.0356 -0.76069,0.25367 -1.6055,0.48438 -0.84397,0.23071 -3.995,1.0975 -7,1.9258 -3.0057,0.82738 -5.4815,1.4853 -5.5039,1.4629 -0.02158,-0.0217 0.20546,-0.40651 0.50586,-0.85547 l 0.54688,-0.8164 5.9531,-2.0898 c 3.2747,-1.1485 5.9951,-2.0915 6.0449,-2.0957 z m 46.443,3.0644 c 0.0415,0 1.8937,0.73231 4.1152,1.627 2.2215,0.8946 4.0518,1.6397 4.0684,1.6563 0.0174,0.0158 -1.7724,5.3327 -3.9766,11.816 -2.205,6.4829 -4.0301,11.787 -4.0566,11.787 -0.0256,0 -0.91402,-4.8401 -1.9746,-10.758 l -1.9277,-10.758 1.8379,-2.6856 c 1.0116,-1.4763 1.8726,-2.6856 1.9141,-2.6856 z m -29.1,0.004 c 0.04891,-0.003 0.91612,1.2053 1.9277,2.6816 l 1.8379,2.6856 -1.9277,10.758 c -1.0606,5.9177 -1.9507,10.76 -1.9766,10.76 -0.02653,0 -1.8511,-5.3112 -4.0586,-11.801 -2.2066,-6.4904 -3.979,-11.812 -3.9375,-11.828 0.04237,-0.0149 1.8698,-0.75442 4.0605,-1.6406 2.1908,-0.88547 4.0245,-1.6127 4.0742,-1.6152 z m 11.662,0.086 h 2.5547 v 25.797 l -0.14649,0.041 c -0.07969,0.0233 -3.1403,0.46205 -6.8008,0.97657 -3.6614,0.51535 -6.6791,0.91268 -6.709,0.8828 -0.02989,-0.0298 2.27,-5.8163 5.1113,-12.859 2.8423,-7.0431 5.3535,-13.263 5.5801,-13.822 z m 3.2168,0 h 2.5547 l 0.41015,1.0156 c 0.22655,0.55932 2.7368,6.7793 5.5781,13.822 2.8423,7.0431 5.1454,12.83 5.1172,12.857 -0.0273,0.0273 -0.8815,-0.0681 -1.8965,-0.21094 -1.0157,-0.14359 -3.9943,-0.56094 -6.6192,-0.92774 -2.624,-0.36681 -4.8542,-0.68657 -4.957,-0.70898 l -0.1875,-0.043 z m -4.1738,0.78125 c 0.0091,0.007 -2.1919,5.4716 -4.8906,12.145 -2.6996,6.6729 -4.9187,12.122 -4.9336,12.107 -0.01415,-0.0149 0.75824,-4.4013 1.7168,-9.748 0.95849,-5.3468 1.7422,-9.7551 1.7422,-9.7949 0,-0.0399 1.0163,-0.81677 2.2578,-1.7246 1.2423,-0.90786 2.6701,-1.9541 3.1738,-2.3242 0.50372,-0.37094 0.92447,-0.6668 0.93359,-0.66016 z m 7.6699,0.0254 c -0.0174,-0.0464 0.0401,-0.0326 0.1289,0.0312 0.0888,0.0639 1.5304,1.1199 3.2051,2.3457 1.6746,1.2257 3.0449,2.262 3.0449,2.3027 0,0.0415 0.78565,4.4512 1.7442,9.7988 0.95849,5.3477 1.729,9.734 1.7148,9.748 -0.0135,0.0149 -2.2257,-5.4123 -4.916,-12.059 -2.6896,-6.6454 -4.9046,-12.122 -4.9219,-12.168 z m -3.7031,25.629 c 0.13687,0.0174 3.2923,0.48106 7.0117,1.0312 3.7203,0.5502 6.792,1.0096 6.8242,1.0195 0.0332,0.0104 -1.6473,2.3616 -3.7344,5.2246 l -3.7949,5.2051 h -12.85 l -3.485,-4.8 c -1.917,-2.629 -3.6246,-4.9736 -3.793,-5.2109 l -0.30664,-0.42969 3.502,-0.52148 c 1.9261,-0.28712 5.0516,-0.75697 6.9453,-1.0449 1.8945,-0.28796 3.5565,-0.50879 3.6934,-0.49219 z m 14.295,2.6777 c 0.0165,0.0499 0.17197,0.83977 0.34375,1.7558 l 0.31251,1.666 -3.3692,2.4707 c -1.8523,1.3585 -3.4234,2.5043 -3.4922,2.5449 -0.068,0.0415 -0.028,-0.0532 0.0898,-0.21094 0.11701,-0.15767 1.5335,-2.0944 3.1484,-4.3027 1.6157,-2.2091 2.9502,-3.9735 2.9668,-3.9238 z m -28.734,0.0273 c 0.05643,0.0613 1.438,1.9413 3.0703,4.1777 1.6315,2.2364 3.0099,4.12 3.0605,4.1855 0.07553,0.0954 0.06598,0.10326 -0.04104,0.041 -0.07306,-0.0424 -1.6464,-1.1895 -3.4961,-2.5488 l -3.3633,-2.4707 0.06448,-0.3086 c 0.03564,-0.17012 0.18431,-0.95642 0.33203,-1.748 0.2166,-1.161 0.28924,-1.417 0.37305,-1.3281 z m 29.523,0.008 c 0.075,0.0363 0.19392,0.11848 0.37109,0.25585 0.26224,0.20332 0.81242,0.63198 1.2207,0.95313 l 0.7422,0.58203 1.0586,3.4727 c 0.58255,1.9096 1.0487,3.5054 1.0371,3.5469 -0.0119,0.0415 -0.88832,-1.1429 -1.9473,-2.6309 -1.0597,-1.4888 -1.9432,-2.7555 -1.9648,-2.8144 -0.0217,-0.0597 -0.17188,-0.80372 -0.33204,-1.6543 -0.16016,-0.84979 -0.29101,-1.6091 -0.29101,-1.6856 0,-0.0518 0.0305,-0.0617 0.10547,-0.0254 z m -30.328,0.0196 c 0.01327,0.0564 -0.10966,0.80849 -0.27148,1.6699 -0.16266,0.86221 -0.31437,1.6161 -0.33593,1.6758 -0.02158,0.0589 -0.90506,1.3257 -1.9648,2.8144 -1.0589,1.488 -1.9356,2.6724 -1.9473,2.6309 -0.01167,-0.0415 0.45538,-1.6373 1.0371,-3.5469 l 1.0586,-3.4726 1.1992,-0.9375 c 0.66804,-0.52282 1.2105,-0.89124 1.2246,-0.83398 z m 30.027,4.3008 c 0.009,0.009 -0.62481,2.9905 -1.4082,6.6269 -0.78339,3.6356 -1.4484,6.6339 -1.4766,6.6621 -0.0282,0.0282 -1.1444,-1.6221 -2.4805,-3.666 -1.3369,-2.0439 -2.4344,-3.7609 -2.4395,-3.8164 -0.004,-0.0556 1.7451,-1.3894 3.8887,-2.9629 2.1436,-1.5742 3.9069,-2.8528 3.916,-2.8437 z m -29.828,0.004 c 0.01141,-0.0128 0.03874,-0.004 0.08402,0.0234 0.06554,0.0389 1.8444,1.339 3.9531,2.8867 2.1096,1.5485 3.8187,2.8567 3.7988,2.9082 -0.0199,0.0515 -1.1276,1.7644 -2.4629,3.8066 -1.3352,2.0432 -2.4548,3.6858 -2.4863,3.6484 -0.03237,-0.0365 -0.68267,-2.9789 -1.4453,-6.5391 -0.76264,-3.56 -1.4067,-6.5443 -1.4316,-6.6289 -0.01698,-0.0585 -0.02114,-0.0926 -0.0097,-0.10548 z m -0.67969,0.0527 c 0.02653,0 0.68674,2.9588 1.4668,6.5762 0.77923,3.6174 1.4058,6.5905 1.3926,6.6055 -0.01415,0.0149 -1.6819,-1.4909 -3.7051,-3.3457 -2.0241,-1.8539 -3.6748,-3.4158 -3.6699,-3.4707 0.0053,-0.0548 1.0117,-1.5097 2.2383,-3.2324 1.2265,-1.7229 2.2515,-3.1328 2.2773,-3.1328 z m 31.213,0.0196 c 0.0341,0.0119 1.0591,1.4228 2.2774,3.1348 1.2174,1.7112 2.2268,3.1496 2.2441,3.1953 0.0182,0.0464 -1.6311,1.6088 -3.666,3.4726 -2.0348,1.8639 -3.7116,3.3772 -3.7266,3.3613 -0.0149,-0.0158 0.61056,-2.9892 1.3906,-6.6074 0.78007,-3.6174 1.4464,-6.5683 1.4805,-6.5566 z m -21.977,5.9707 h 12.728 l 0.12499,0.14453 c 0.0681,0.0797 1.0848,1.6152 2.2598,3.4102 1.1751,1.795 2.1243,3.2749 2.1094,3.2891 -0.0158,0.0134 -1.4053,-0.96001 -3.0898,-2.1641 l -3.0625,-2.1914 h -9.4355 l -2.8418,2.0566 c -1.5643,1.1303 -2.9699,2.1452 -3.125,2.2539 l -0.27929,0.19922 0.28906,-0.44921 c 0.15851,-0.2473 1.1401,-1.7559 2.1816,-3.3535 1.0406,-1.5975 1.9488,-2.9711 2.0176,-3.0508 z m 10.857,3.1543 3.334,2.3027 3.334,2.3027 -5.5801,0.0215 c -3.0696,0.0119 -8.0899,0.0119 -11.156,0 l -5.5762,-0.0215 3.3144,-2.2988 3.3145,-2.2969 4.5078,-0.006 z" /></g></svg>