<?xml version="1.0" encoding="UTF-8" standalone="no"?>
<svg
   xmlns:dc="http://purl.org/dc/elements/1.1/"
   xmlns:cc="http://creativecommons.org/ns#"
   xmlns:rdf="http://www.w3.org/1999/02/22-rdf-syntax-ns#"
   xmlns:svg="http://www.w3.org/2000/svg"
   xmlns="http://www.w3.org/2000/svg"
   xml:space="preserve"
   enable-background="new 0 0 1200 630"
   viewBox="0 0 1200 630"
   y="0px"
   x="0px"
   id="Слой_1"
   version="1.1"><metadata
     id="metadata32"><rdf:RDF><cc:Work
         rdf:about=""><dc:format>image/svg+xml</dc:format><dc:type
           rdf:resource="http://purl.org/dc/dcmitype/StillImage" /></cc:Work></rdf:RDF></metadata><defs
     id="defs30" /><rect
     id="rect2"
     height="630"
     width="1200"
     fill="#003680" /><rect
     id="rect4"
     height="80"
     width="350"
     fill="#91a8c8"
     y="549.40002"
     x="425" /><rect
     id="rect6"
     height="80"
     width="350"
     fill="#91a8c8"
     y="-0.9"
     x="422.29999" /><rect
     id="rect8"
     height="630.49951"
     width="27.06055"
     fill="#ffffff"
     y="-0.8999"
     x="583.76953" /><rect
     id="rect10"
     height="469.79996"
     width="997.19995"
     fill="#003680"
     y="79.1"
     x="101.4" /><path
     id="path12"
     d="M1111.5752,561.87598H88.42383V66.12402H1111.5752V561.87598z M114.37598,535.9248h971.24805V92.07617  H114.37598V535.9248z"
     fill="#ffffff" /><g
     id="center_1_"
     style="font-weight:300;font-size:130px;font-family:Montserrat;text-anchor:middle;fill:#ffffff"
     transform="translate(591.50384,379.3457)"
     aria-label="NEW SALE"><path
       id="path34"
       style="font-weight:300;font-size:130px;font-family:Montserrat;text-anchor:middle;fill:#ffffff"
       d="m -259.38961,-90.87 h 8.84 V 0 h -9.49 l -56.29,-76.96 V 0 h -8.97 v -90.87 h 9.49 l 56.42,76.96 z" /><path
       id="path36"
       style="font-weight:300;font-size:130px;font-family:Montserrat;text-anchor:middle;fill:#ffffff"
       d="m -221.70586,-90.87 h 60.84 v 8.06 h -51.87 v 32.5 h 46.41 v 8.06 h -46.41 v 34.19 h 53.56 V 0 h -62.53 z" /><path
       id="path38"
       style="font-weight:300;font-size:130px;font-family:Montserrat;text-anchor:middle;fill:#ffffff"
       d="m -28.475078,-91 h 9.49 l -30.81,91 h -9.36 l -25.61,-79.69 L -110.63508,0 h -9.23 l -30.68,-91 h 9.75 l 25.87,81.51 25.740002,-81.51 h 9.1 l 25.87,81.51 z" /><path
       id="path40"
       style="font-weight:300;font-size:130px;font-family:Montserrat;text-anchor:middle;fill:#ffffff"
       d="m 82.386484,-76.05 q -5.59,-3.51 -12.22,-5.33 -6.63,-1.95 -12.48,-1.95 -9.36,0 -15.08,3.77 -5.59,3.64 -5.59,10.01 0,5.59 3.12,9.1 3.12,3.51 7.67,5.59 4.55,1.95 12.48,4.42 9.23,2.73 14.82,5.46 5.72,2.6 9.62,7.67 4.03,5.07 4.03,13.39 0,7.28 -4.16,12.87 -4.03,5.59 -11.44,8.71 -7.41,2.99 -17.03,2.99 -9.49,0 -18.59,-3.77 -8.97,-3.77 -15.47,-10.01 l 4.16,-7.41 q 6.11,5.98 14.17,9.36 8.06,3.38 15.86,3.38 10.4,0 16.51,-4.16 6.11,-4.29 6.11,-11.44 0,-5.72 -3.12,-9.36 -3.12,-3.64 -7.67,-5.59 -4.55,-1.95 -12.74,-4.55 -9.23,-2.86 -14.82,-5.33 -5.59,-2.6 -9.49,-7.54 -3.9,-5.07 -3.9,-13.13 0,-6.89 3.9,-12.09 3.9,-5.2 10.92,-7.93 7.02,-2.86 16.25,-2.86 7.41,0 14.82,2.21 7.54,2.21 13.26,5.85 z" /><path
       id="path42"
       style="font-weight:300;font-size:130px;font-family:Montserrat;text-anchor:middle;fill:#ffffff"
       d="m 177.7557,0 -10.79,-24.18 h -50.44 L 105.8657,0 H 96.245703 L 137.1957,-90.87 h 9.36 L 187.5057,0 Z m -57.72,-32.24 h 43.42 l -21.84,-49.14 z" /><path
       id="path44"
       style="font-weight:300;font-size:130px;font-family:Montserrat;text-anchor:middle;fill:#ffffff"
       d="m 202.57148,-90.87 h 8.97 v 82.81 h 40.04 V 0 h -49.01 z" /><path
       id="path46"
       style="font-weight:300;font-size:130px;font-family:Montserrat;text-anchor:middle;fill:#ffffff"
       d="m 269.34883,-90.87 h 60.84 v 8.06 h -51.87 v 32.5 h 46.41 v 8.06 h -46.41 v 34.19 h 53.56 V 0 h -62.53 z" /></g><g
     id="center"
     style="font-weight:600;font-size:27px;font-family:Montserrat;letter-spacing:1;text-anchor:middle;fill:#ffffff"
     transform="translate(570.31499,490.61414)"
     aria-label="GET EXTRA 50% OFF"><path
       id="path49"
       style="font-weight:600;font-size:27px;font-family:Montserrat;letter-spacing:1;text-anchor:middle;fill:#ffffff"
       d="m -134.981,-9.531 h 3.699 v 7.344 q -1.512,1.107 -3.618,1.809 -2.106,0.675 -4.05,0.675 -2.835,0 -5.13,-1.269 -2.295,-1.296 -3.618,-3.51 -1.323,-2.241 -1.323,-4.995 0,-2.727 1.35,-4.941 1.35,-2.241 3.699,-3.51 2.376,-1.269 5.265,-1.269 2.106,0 4.104,0.756 2.025,0.756 3.483,2.052 l -2.403,3.051 q -1.053,-0.999 -2.43,-1.566 -1.377,-0.567 -2.754,-0.567 -1.647,0 -3.024,0.81 -1.35,0.783 -2.133,2.16 -0.783,1.35 -0.783,3.024 0,1.674 0.783,3.078 0.81,1.377 2.16,2.187 1.377,0.783 3.024,0.783 0.837,0 1.809,-0.27 0.972,-0.297 1.89,-0.783 z" /><path
       id="path51"
       style="font-weight:600;font-size:27px;font-family:Montserrat;letter-spacing:1;text-anchor:middle;fill:#ffffff"
       d="m -126.5792,-18.9 h 14.391 v 3.537 h -10.125 v 4.104 h 9.099 v 3.537 h -9.099 v 4.185 h 10.422 V 0 h -14.688 z" /><path
       id="path53"
       style="font-weight:600;font-size:27px;font-family:Montserrat;letter-spacing:1;text-anchor:middle;fill:#ffffff"
       d="m -109.40705,-18.9 h 15.795003 v 3.618 h -5.778 V 0 h -4.266003 v -15.282 h -5.751 z" /><path
       id="path55"
       style="font-weight:600;font-size:27px;font-family:Montserrat;letter-spacing:1;text-anchor:middle;fill:#ffffff"
       d="m -82.973734,-18.9 h 14.391 v 3.537 h -10.125 v 4.104 h 9.099 v 3.537 h -9.099 v 4.185 h 10.422 V 0 h -14.688 z" /><path
       id="path57"
       style="font-weight:600;font-size:27px;font-family:Montserrat;letter-spacing:1;text-anchor:middle;fill:#ffffff"
       d="m -65.342578,-18.9 h 4.968 l 3.942,5.778 3.969,-5.778 h 5.049 l -6.291,9.045 6.831,9.855 h -5.103 l -4.455,-6.291 -4.374,6.291 h -4.995 l 6.777,-9.666 z" /><path
       id="path59"
       style="font-weight:600;font-size:27px;font-family:Montserrat;letter-spacing:1;text-anchor:middle;fill:#ffffff"
       d="m -45.342594,-18.9 h 15.795 v 3.618 h -5.778 V 0 h -4.266 v -15.282 h -5.751 z" /><path
       id="path61"
       style="font-weight:600;font-size:27px;font-family:Montserrat;letter-spacing:1;text-anchor:middle;fill:#ffffff"
       d="m -14.627406,0 -2.997,-5.4 h -0.405 -3.942 V 0 h -4.266 v -18.9 h 8.208 q 3.699,0 5.724,1.728 2.025,1.701 2.025,4.833 0,2.187 -0.918,3.753 -0.891,1.539 -2.619,2.349 L -9.7944062,0 Z m -7.344,-8.964 h 3.942 q 1.782,0 2.727,-0.81 0.972,-0.837 0.972,-2.43 0,-1.566 -0.972,-2.349 -0.945,-0.81 -2.727,-0.81 h -3.942 z" /><path
       id="path63"
       style="font-weight:600;font-size:27px;font-family:Montserrat;letter-spacing:1;text-anchor:middle;fill:#ffffff"
       d="m 8.2860469,0 -1.485,-3.672 h -8.748 l -1.485,3.672 h -4.401 L 0.37504687,-18.9 H 4.7760469 L 12.849047,0 Z M -0.54295312,-7.101 H 5.4240469 l -2.97,-7.344 z" /><path
       id="path65"
       style="font-weight:600;font-size:27px;font-family:Montserrat;letter-spacing:1;text-anchor:middle;fill:#ffffff"
       d="m 29.675844,-12.015 q 2.16,0 3.807,0.729 1.647,0.729 2.538,2.025 0.891,1.296 0.891,2.97 0,1.944 -0.945,3.429 -0.918,1.458 -2.646,2.268 -1.701,0.783 -3.969,0.783 -1.836,0 -3.834,-0.621 -1.971,-0.648 -3.483,-1.674 l 1.647,-3.186 q 1.188,0.972 2.538,1.512 1.35,0.54 2.673,0.54 1.593,0 2.511,-0.729 0.918,-0.756 0.918,-2.025 0,-1.242 -0.918,-1.89 -0.891,-0.675 -2.673,-0.675 -0.999,0 -2.646,0.054 -1.62,0.027 -2.457,0.108 V -18.9 h 12.42 v 3.564 h -8.478 v 3.321 z" /><path
       id="path67"
       style="font-weight:600;font-size:27px;font-family:Montserrat;letter-spacing:1;text-anchor:middle;fill:#ffffff"
       d="m 48.470109,-19.062 q 3.969,0 6.102,2.484 2.133,2.484 2.133,7.128 0,4.617 -2.133,7.128 -2.133,2.484 -6.102,2.484 -3.996,0 -6.156,-2.484 -2.133,-2.511 -2.133,-7.128 0,-4.644 2.133,-7.128 2.16,-2.484 6.156,-2.484 z m 0,3.267 q -2.025,0 -2.97,1.512 -0.945,1.512 -0.945,4.833 0,3.294 0.945,4.833 0.945,1.512 2.97,1.512 1.971,0 2.916,-1.512 0.945,-1.539 0.945,-4.833 0,-3.321 -0.945,-4.833 -0.945,-1.512 -2.916,-1.512 z" /><path
       id="path69"
       style="font-weight:600;font-size:27px;font-family:Montserrat;letter-spacing:1;text-anchor:middle;fill:#ffffff"
       d="m 64.889219,-18.981 q 2.403,0 3.78,1.539 1.377,1.512 1.377,4.131 0,2.646 -1.377,4.185 -1.377,1.539 -3.78,1.539 -2.403,0 -3.807,-1.539 -1.377,-1.539 -1.377,-4.185 0,-2.646 1.377,-4.158 1.404,-1.512 3.807,-1.512 z m 0,2.322 q -1.188,0 -1.863,0.891 -0.648,0.891 -0.648,2.457 0,1.593 0.648,2.511 0.675,0.891 1.863,0.891 1.188,0 1.836,-0.891 0.675,-0.918 0.675,-2.511 0,-1.566 -0.675,-2.457 -0.675,-0.891 -1.836,-0.891 z m 12.582,-2.241 h 2.97 L 66.833219,0 h -3.024 z m 2.106,7.587 q 2.403,0 3.78,1.539 1.377,1.512 1.377,4.131 0,2.646 -1.377,4.185 -1.377,1.539 -3.78,1.539 -2.403,0 -3.807,-1.539 -1.377,-1.539 -1.377,-4.185 0,-2.646 1.377,-4.158 1.404,-1.512 3.807,-1.512 z m 0,2.322 q -1.188,0 -1.863,0.891 -0.648,0.891 -0.648,2.457 0,1.593 0.648,2.511 0.675,0.891 1.863,0.891 1.188,0 1.836,-0.891 0.675,-0.918 0.675,-2.511 0,-1.566 -0.675,-2.457 -0.675,-0.891 -1.836,-0.891 z" /><path
       id="path71"
       style="font-weight:600;font-size:27px;font-family:Montserrat;letter-spacing:1;text-anchor:middle;fill:#ffffff"
       d="m 104.68373,-19.197 q 2.835,0 5.157,1.269 2.322,1.269 3.645,3.51 1.35,2.214 1.35,4.941 0,2.727 -1.35,4.968 -1.323,2.241 -3.645,3.537 -2.322,1.269 -5.157,1.269 -2.835,0 -5.156996,-1.269 -2.322,-1.296 -3.672,-3.51 -1.323,-2.241 -1.323,-4.995 0,-2.727 1.323,-4.941 1.35,-2.241 3.645,-3.51 2.321996,-1.269 5.183996,-1.269 z m 0.054,3.726 q -1.566,0 -2.916,0.81 -1.35,0.783 -2.132996,2.16 -0.783,1.377 -0.783,3.024 0,1.674 0.783,3.051 0.809996,1.377 2.132996,2.187 1.35,0.81 2.916,0.81 1.566,0 2.862,-0.783 1.323,-0.81 2.079,-2.187 0.783,-1.404 0.783,-3.078 0,-1.647 -0.783,-3.024 -0.756,-1.377 -2.079,-2.16 -1.296,-0.81 -2.862,-0.81 z" /><path
       id="path73"
       style="font-weight:600;font-size:27px;font-family:Montserrat;letter-spacing:1;text-anchor:middle;fill:#ffffff"
       d="m 118.66103,-18.9 h 13.581 l -0.027,3.537 h -9.288 v 4.644 h 8.532 v 3.564 h -8.532 V 0 h -4.266 z" /><path
       id="path75"
       style="font-weight:600;font-size:27px;font-family:Montserrat;letter-spacing:1;text-anchor:middle;fill:#ffffff"
       d="m 135.74502,-18.9 h 13.581 l -0.027,3.537 h -9.288 v 4.644 h 8.532 v 3.564 h -8.532 V 0 h -4.266 z" /></g><g
     id="g25"
     transform="matrix(0.6849,0,0,0.6849,528.81061,109.7295)"><defs
       id="defs329639" /><linearGradient
       spreadMethod="pad"
       y2="0.30000001"
       x2="-0.1"
       y1="1.2"
       x1="0.30000001"
       id="3d_gradient2-logo-51D135FBEB6D4759A98A3392EEF1F104"><stop
         id="stop329616"
         stop-opacity="1"
         stop-color="#ffffff"
         offset="0%" /><stop
         id="stop329618"
         stop-opacity="1"
         stop-color="#000000"
         offset="100%" /></linearGradient><linearGradient
       gradientTransform="rotate(-30)"
       spreadMethod="pad"
       y2="0.30000001"
       x2="-0.1"
       y1="1.2"
       x1="0.30000001"
       id="3d_gradient3-logo-51D135FBEB6D4759A98A3392EEF1F104"><stop
         id="stop329621"
         stop-opacity="1"
         stop-color="#ffffff"
         offset="0%" /><stop
         id="stop329623"
         stop-opacity="1"
         stop-color="#cccccc"
         offset="50%" /><stop
         id="stop329625"
         stop-opacity="1"
         stop-color="#000000"
         offset="100%" /></linearGradient><path
       style="fill:#ffffff;stroke-width:1.49255586"
       d="m 46.018406,44.617534 c -0.09378,-0.01418 -0.200824,0.02324 -0.238168,0.08299 -0.03734,0.05975 -1.362628,7.389047 -2.945111,16.286769 -1.581661,8.898618 -2.858095,16.228559 -2.834811,16.288262 0.02324,0.05975 4.528564,3.417355 10.011467,7.459644 5.48365,4.043035 9.978184,7.375017 9.988184,7.404868 0.01,0.0307 -4.408264,2.183311 -9.818928,4.784985 -5.410664,2.601674 -9.875346,4.774978 -9.921765,4.829758 -0.04564,0.0548 -0.0614,0.16681 -0.03485,0.24896 0.02655,0.0821 3.078844,2.09122 6.781577,4.46468 3.702882,2.37346 6.848891,4.37587 6.991579,4.4505 l 0.258093,0.13523 0.995833,-0.27553 c 0.547708,-0.15185 3.996617,-1.10204 7.663826,-2.11196 3.66721,-1.00994 6.677098,-1.82406 6.68874,-1.80988 0.01075,0.0149 3.471237,6.44799 7.688602,14.29764 4.217366,7.84876 7.667857,14.316 7.667857,14.37152 0,0.0564 -0.672188,0.62986 -1.49375,1.27633 -0.821563,0.64564 -1.502108,1.18172 -1.512855,1.19251 -0.01,0.0104 -0.654754,2.10704 -1.432346,4.66051 -0.778412,2.55346 -1.404122,4.70617 -1.39251,4.78498 0.01239,0.0781 1.940174,1.89868 4.284531,4.04557 l 4.262142,3.90289 h 24.694337 l 3.10198,-2.84228 c 1.70614,-1.56345 3.63318,-3.32601 4.28214,-3.91781 0.64895,-0.59168 1.18006,-1.13026 1.18006,-1.19582 0,-0.0655 -0.6365,-2.21405 -1.41408,-4.77424 -0.77759,-2.55928 -1.44064,-4.67796 -1.473,-4.70692 -0.0324,-0.0291 -0.71203,-0.56431 -1.51121,-1.19003 -0.79833,-0.62571 -1.46222,-1.16512 -1.47466,-1.19831 -0.012,-0.0331 3.4381,-6.50038 7.66711,-14.37063 4.22975,-7.86965 7.69949,-14.32092 7.71188,-14.33585 0.0119,-0.0149 3.46721,0.92197 7.6795,2.08122 l 7.65801,2.10868 2.28122,-1.45889 c 1.25474,-0.8033 4.3908,-2.80407 6.96755,-4.44722 2.57749,-1.64316 4.72528,-3.04974 4.77334,-3.12601 0.0606,-0.097 0.0597,-0.17096 -0.006,-0.24896 -0.0506,-0.0606 -4.51856,-2.238979 -9.92923,-4.840653 -5.41066,-2.601674 -9.83803,-4.749313 -9.83803,-4.771701 -8.2e-4,-0.02324 1.27716,-0.98255 2.83899,-2.133609 1.56181,-1.150193 6.03306,-4.444681 9.93505,-7.320986 3.90288,-2.876304 7.13934,-5.296185 7.19233,-5.376633 0.0772,-0.118674 -0.46638,-3.318549 -2.75601,-16.206171 -1.56838,-8.832199 -2.88302,-16.150947 -2.92033,-16.265873 -0.0473,-0.143569 -0.12866,-0.207466 -0.26472,-0.207466 -0.10791,0 -0.22905,0.05643 -0.26971,0.124479 -0.0406,0.06805 -2.02987,6.29784 -4.42065,13.843754 -2.39003,7.545914 -4.36259,13.735842 -4.38244,13.755842 -0.0198,0.02075 -5.14932,1.586736 -11.3982,3.481237 l -11.36074,3.444819 -7.46875,-1.715394 -7.46875,-1.714499 -3.58825,-2.353462 c -1.97346,-1.293748 -3.62572,-2.352716 -3.67139,-2.352716 -0.04567,0 -1.698678,1.05973 -3.67303,2.354358 l -3.588105,2.349282 -7.447853,1.713454 -7.447853,1.713454 -4.377667,-1.323897 c -2.407492,-0.72862 -6.225599,-1.883754 -8.485329,-2.56839 -2.258834,-0.683799 -5.413201,-1.639871 -7.008146,-2.124503 -1.594945,-0.483812 -2.91526,-0.895415 -2.934365,-0.913683 -0.01825,-0.01909 -1.989129,-6.207391 -4.378412,-13.75241 -2.39003,-7.545168 -4.378413,-13.774797 -4.41901,-13.842858 -0.04066,-0.06804 -0.150211,-0.136091 -0.243973,-0.15021 z m 0.404482,2.640331 c 0.039,0.113688 1.844799,5.805744 4.013184,12.648814 2.168385,6.84307 3.928556,12.455378 3.911093,12.473587 -0.01743,0.01743 -1.885396,0.370945 -4.150947,0.785876 -2.264654,0.415766 -4.136916,0.736083 -4.160051,0.712844 -0.02324,-0.02324 0.0166,-5.751713 0.08797,-12.730008 0.0722,-6.978296 0.152689,-13.004788 0.179256,-13.393151 0.03734,-0.538574 0.06639,-0.656426 0.119494,-0.497917 z m 107.308792,0.469708 c 0.0324,0.357676 0.11702,6.379183 0.18838,13.379867 0.0713,7.001579 0.11209,12.747471 0.0904,12.769113 -0.0215,0.02158 -1.89539,-0.300406 -4.16423,-0.716173 -2.26793,-0.415766 -4.13691,-0.768457 -4.15259,-0.784218 -0.0158,-0.01576 1.77346,-5.714399 3.97498,-12.663739 l 4.00408,-12.63553 z M 45.618401,48.925065 c 0.01909,0.01909 -0.02739,5.681265 -0.104569,12.582395 -0.08879,8.031443 -0.168465,12.575678 -0.220749,12.625529 -0.04564,0.04315 -1.084625,0.608291 -2.308685,1.256404 -1.224045,0.648127 -2.237341,1.165955 -2.251371,1.150193 -0.01494,-0.01576 1.07052,-6.190823 2.410776,-13.721811 1.340225,-7.530989 2.43809,-13.745842 2.43809,-13.810619 8.3e-4,-0.06473 0.01743,-0.10124 0.03651,-0.08215 z m 108.813289,0.107882 c 0.0257,0.08714 1.14024,6.304407 2.47719,13.817186 1.33608,7.513526 2.41824,13.672856 2.40496,13.687782 -0.0134,0.01494 -1.04563,-0.514514 -2.29287,-1.176746 l -2.26883,-1.204135 -0.0539,-0.358497 c -0.0291,-0.197509 -0.0954,-4.858866 -0.14612,-10.358337 -0.0506,-5.500366 -0.10956,-11.027151 -0.12941,-12.281943 -0.0207,-1.255583 -0.0166,-2.21152 0.009,-2.12525 z m -54.42605,22.877895 c 0.059,-0.0033 1.59002,0.968445 3.40243,2.158535 1.81241,1.190014 3.2887,2.190027 3.28124,2.22152 -0.009,0.03236 -1.49375,2.54018 -3.30034,5.574248 -1.80659,3.034814 -3.32198,5.516934 -3.36587,5.516934 -0.04403,0 -1.570911,-2.501971 -3.393321,-5.560069 l -3.312877,-5.560069 2.627346,-1.728529 c 1.444794,-0.950191 2.92526,-1.928531 3.290339,-2.172564 0.365139,-0.244809 0.712024,-0.447289 0.770933,-0.449782 z m -45.31847,1.080477 c 0.100419,-0.0042 5.197377,1.510317 11.327603,3.365116 6.130225,1.854799 11.170735,3.394967 11.200586,3.423177 0.02988,0.02739 -1.284628,1.656438 -2.921976,3.619 -1.636439,1.962561 -3.026456,3.568402 -3.088695,3.568402 -0.0614,0 -5.589174,-2.800781 -12.282839,-6.223958 -6.693665,-3.423176 -12.17239,-6.247241 -12.173285,-6.274555 -0.0016,-0.02821 0.156017,-0.07469 0.350198,-0.103733 0.194182,-0.02821 1.940173,-0.347705 3.8796,-0.708695 1.940174,-0.361825 3.609,-0.660575 3.708703,-0.664725 z m 90.56381,-0.0042 c 0.0681,-0.0033 1.90778,0.319497 4.08706,0.718666 2.17928,0.399169 3.96169,0.746039 3.96095,0.769278 -8.4e-4,0.02406 -5.47455,2.844812 -12.16329,6.267988 -6.68874,3.423177 -12.20731,6.234704 -12.26448,6.247988 -0.0564,0.01328 -1.43981,-1.580915 -3.07212,-3.541835 -1.63316,-1.960173 -2.9684,-3.59497 -2.96765,-3.631537 8.3e-4,-0.03651 0.48049,-0.210779 1.06555,-0.385886 0.58505,-0.175106 2.65137,-0.799159 4.5908,-1.387524 1.94017,-0.587545 5.20738,-1.578378 7.26128,-2.201669 2.05391,-0.623232 5.0041,-1.518676 6.55591,-1.990771 1.55181,-0.471364 2.87794,-0.860563 2.946,-0.864713 z M 46.621398,75.13642 c 0.502902,0.264719 6.123509,3.143471 12.490304,6.397392 6.367542,3.253921 11.607308,5.942611 11.644622,5.975 0.03734,0.03236 -1.279643,1.678827 -2.926902,3.658851 -1.629871,1.980622 -3.01347,3.600045 -3.056754,3.600045 -0.04399,0 -4.588266,-3.323624 -10.099379,-7.385763 -5.510218,-4.06214 -10.842075,-7.99398 -11.847908,-8.737571 -1.004968,-0.743562 -1.837336,-1.378406 -1.848978,-1.410764 -0.01164,-0.03319 1.052267,-0.626545 2.364208,-1.319479 l 2.384955,-1.260553 z m 108.753582,0.06639 c 0.57095,0.295436 1.6439,0.859742 2.38585,1.25309 0.74189,0.394184 1.33939,0.746039 1.32778,0.781726 -0.0119,0.03651 -5.36171,4.004079 -11.88865,8.817273 -6.52605,4.813194 -11.89358,8.742646 -11.92672,8.73175 -0.0331,-0.01075 -1.40993,-1.640617 -3.0581,-3.622283 l -2.99824,-3.602433 0.23734,-0.128629 c 0.13031,-0.07137 5.78157,-2.972574 12.56001,-6.448885 l 12.32344,-6.319332 z m -62.775401,1.356822 c 0.136928,-0.0058 0.752681,0.971774 3.319445,5.274543 1.732708,2.904514 3.197502,5.367529 3.254667,5.473799 l 0.104568,0.191704 -0.482976,-0.183405 c -0.265555,-0.10124 -4.821552,-1.845545 -10.123409,-3.876317 -5.302752,-2.031517 -9.641313,-3.711986 -9.642209,-3.73527 -8.3e-4,-0.02324 0.624053,-0.185062 1.388361,-0.358497 0.764308,-0.174271 3.780046,-0.870518 6.701127,-1.547631 2.921081,-0.677172 5.38753,-1.234836 5.480367,-1.238985 z m 14.764961,-0.01 c 0.0473,-8.3e-4 3.13929,0.69874 6.87038,1.555094 3.73109,0.856414 6.78412,1.576736 6.78322,1.60002 0,0.02324 -4.43483,1.739424 -9.8546,3.814077 -5.41977,2.074653 -9.97654,3.82154 -10.12759,3.882884 l -0.27385,0.110374 0.10791,-0.19833 c 0.0597,-0.108718 1.52524,-2.575107 3.2581,-5.47962 1.73271,-2.90541 3.18914,-5.282902 3.23646,-5.284544 z m -28.952599,3.589597 c 0.05725,0.01991 4.873792,1.863008 10.704312,4.09617 9.179069,3.516163 10.600579,4.082886 10.601474,4.22647 8.3e-4,0.09128 -0.658903,4.217366 -1.46554,9.169965 -0.806622,4.951706 -1.47466,9.015636 -1.484616,9.029666 -0.01,0.0134 -3.934377,-2.82064 -8.720108,-6.29784 -4.785134,-3.473179 -8.934439,-6.488142 -9.221009,-6.695607 L 78.308537,93.288944 V 86.69931 c 0,-5.235587 0.02158,-6.583216 0.103732,-6.555006 z m 43.318449,-0.01328 c 0.034,-0.0025 0.0622,2.957649 0.0622,6.577544 v 6.581574 l -9.21982,6.701128 c -5.07125,3.686315 -9.22892,6.689495 -9.23966,6.675455 -0.0105,-0.0134 -0.67883,-4.07796 -1.48546,-9.029663 -0.8058,-4.952599 -1.4647,-9.07862 -1.46388,-9.169964 0.001,-0.143569 1.43899,-0.71783 10.64297,-4.248859 5.85306,-2.24555 10.66953,-4.084528 10.70356,-4.087066 z m -44.106518,0.411617 c 0.01164,-8.3e-4 0.02075,2.849737 0.02075,6.334258 v 6.336048 l -5.880371,2.377493 c -3.233921,1.307867 -5.916939,2.378387 -5.961716,2.378387 -0.04564,0 -0.187554,-0.590858 -0.315347,-1.313673 l -0.225376,-1.313449 6.176196,-7.398599 c 3.395863,-4.069603 6.18336,-7.399942 6.194853,-7.399942 z m 44.896078,0.0332 c 0.034,0.03319 2.82735,3.372579 6.20739,7.419793 l 6.1459,7.358449 -0.25395,1.259732 c -0.1394,0.692934 -0.27884,1.285449 -0.31119,1.316987 -0.0315,0.03154 -2.71108,-1.019072 -5.95426,-2.333611 l -5.89559,-2.391074 v -6.345154 c 0,-3.490341 0.0282,-6.318585 0.0622,-6.284555 z m -22.46296,9.592656 c 0.0233,0 0.64397,3.72527 1.38088,8.277864 0.73692,4.552594 1.32281,8.306074 1.30206,8.340104 -0.0208,0.034 -1.22737,0.0622 -2.68302,0.0622 -1.45557,0 -2.662122,-0.0282 -2.682868,-0.0622 -0.02075,-0.034 0.565141,-3.78751 1.302046,-8.340104 0.736919,-4.552594 1.358482,-8.277864 1.380882,-8.277864 z m -39.018398,2.682869 c 0.201659,0.14439 1.079655,0.79086 1.951068,1.435659 l 1.585095,1.171761 0.263063,1.359316 c 0.14439,0.746874 0.258092,1.363464 0.252271,1.370106 -0.0066,0.0066 -5.009017,0.709531 -11.1176,1.560915 -6.107837,0.852262 -11.144168,1.536142 -11.192377,1.520322 -0.0473,-0.0158 0.394184,-0.25808 0.981728,-0.53858 0.587545,-0.28049 1.609871,-0.771769 2.271372,-1.092102 0.661396,-0.321153 4.225724,-2.038085 7.920247,-3.81736 l 6.717695,-3.233921 z m 78.436788,-0.241794 c 0.024,0.01075 4.07214,1.957636 8.99489,4.326024 4.92275,2.369283 8.91444,4.318559 8.86951,4.333489 -0.0448,0.0149 -4.5202,-0.5917 -9.94669,-1.348527 -5.42559,-0.75683 -10.4255,-1.453914 -11.11013,-1.549422 -0.68464,-0.09543 -1.24978,-0.177585 -1.25641,-0.183406 -0.006,-0.0058 0.10791,-0.621559 0.25227,-1.368434 l 0.26307,-1.359316 1.94525,-1.435659 c 1.06968,-0.789204 1.9642,-1.426525 1.98838,-1.414913 z m -61.96942,1.301508 c 0.03403,-0.0033 0.06224,0.627381 0.06224,1.403301 v 1.409107 l -0.311198,0.20166 c -0.170957,0.111195 -1.800768,1.044789 -3.620641,2.075548 -1.820769,1.031519 -3.34437,1.874649 -3.385863,1.874649 -0.04233,0 -0.97343,-0.53111 -2.070474,-1.180059 -1.568377,-0.928608 -1.961815,-1.194999 -1.842261,-1.247284 0.08382,-0.03651 2.616599,-1.07052 5.628875,-2.297939 3.012426,-1.227358 5.505292,-2.234803 5.539322,-2.238983 z m 45.1722,0.02655 c 0.073,0.02739 2.58421,1.043968 5.58082,2.258834 2.9975,1.21409 5.49872,2.234804 5.55842,2.267192 0.0706,0.03818 -0.60911,0.485469 -1.87883,1.235657 -1.09376,0.646462 -2.02316,1.175912 -2.06554,1.175912 -0.0415,0 -0.82073,-0.42239 -1.73032,-0.939401 -0.91036,-0.517007 -2.43899,-1.381719 -3.39751,-1.92286 -0.95849,-0.540245 -1.84554,-1.053923 -1.97092,-1.141059 l -0.22821,-0.157673 v -1.414943 c 0,-1.259732 0.0134,-1.408271 0.13194,-1.362629 z M 78.225372,94.07943 c 0.04233,0.01494 4.148409,2.9775 9.125187,6.58337 4.976629,3.60571 9.048023,6.57411 9.047127,6.59739 -8.3e-4,0.0224 -1.488764,1.12446 -3.307056,2.44809 -1.817336,1.32363 -3.344369,2.4066 -3.39243,2.4066 -0.04814,0 -0.918653,-1.21409 -1.934352,-2.69705 -1.467197,-2.14361 -2.643913,-3.70945 -5.73022,-7.62815 l -3.889601,-4.934394 v -1.403003 c 0,-0.824055 0.03154,-1.392509 0.07635,-1.375912 z m 43.678148,-0.0091 c 0.034,-0.0025 0.0622,0.623231 0.0622,1.390017 v 1.395002 l -3.88452,4.932741 c -3.07959,3.91199 -4.26632,5.49112 -5.73022,7.6298 -1.01575,1.48296 -1.88376,2.69705 -1.93018,2.69705 -0.0457,0 -1.57181,-1.08297 -3.39243,-2.4066 -1.81987,-1.32363 -3.31033,-2.4257 -3.31198,-2.44809 -0.003,-0.0233 0.15436,-0.15187 0.34689,-0.28714 0.19336,-0.13448 2.36764,-1.70703 4.8323,-3.49377 2.46465,-1.78749 6.38575,-4.633936 8.71354,-6.326047 2.32779,-1.692856 4.2605,-3.07959 4.29453,-3.082874 z m -44.154274,3.341086 c 0.03154,0.0084 1.603304,1.975099 3.492879,4.371694 1.889576,2.39585 3.424819,4.37005 3.411535,4.38662 -0.01328,0.0166 -3.068844,-1.08215 -6.791576,-2.44152 -3.721987,-1.3593 -6.767547,-2.49541 -6.767547,-2.52451 0,-0.0298 1.484615,-0.89791 3.298698,-1.930321 1.814052,-1.032341 3.324369,-1.870471 3.356011,-1.862261 z m 44.611004,-0.02657 c 0.0119,0 1.51539,0.845622 3.34019,1.878829 1.8248,1.033175 3.3178,1.904495 3.3178,1.936885 0,0.0324 -3.04392,1.17176 -6.76501,2.53198 -3.72109,1.36015 -6.77665,2.45809 -6.79158,2.44062 -0.0134,-0.0182 1.52689,-2.00331 3.42482,-4.41065 1.89868,-2.407491 3.46139,-4.37662 3.47378,-4.377515 z m -57.221608,1.420719 c 0.07884,-0.0058 0.207466,0.08797 0.286302,0.208301 l 0.142733,0.218256 -0.245644,0.217421 c -0.135271,0.119494 -2.356,2.093757 -4.933494,4.387517 l -4.68782,4.17095 -0.73774,1.11947 c -0.405796,0.61659 -0.765965,1.12031 -0.79998,1.12031 -0.03485,0 -2.167639,-1.34852 -4.739313,-2.99749 -2.572569,-1.64809 -5.414843,-3.46885 -6.316048,-4.04558 l -1.638975,-1.04811 0.269704,-0.0614 c 0.14854,-0.034 4.582445,-0.66141 9.8546,-1.395 5.272155,-0.732771 10.443861,-1.456406 11.493575,-1.608229 1.049774,-0.151868 1.973458,-0.280496 2.052265,-0.286302 z m 70.006838,0.02655 c 0.16846,0.02655 5.4032,0.757666 11.63298,1.624795 6.22978,0.86639 11.4488,1.60331 11.59641,1.63734 l 0.26805,0.0622 -1.1809,0.76015 c -0.64976,0.41825 -3.48959,2.23809 -6.31112,4.04558 -2.82063,1.80659 -5.15842,3.28541 -5.19499,3.28541 -0.0373,0 -0.39915,-0.50456 -0.80496,-1.12031 l -0.73774,-1.12031 -4.67872,-4.17006 c -2.57346,-2.29376 -4.79319,-4.267214 -4.93439,-4.386618 l -0.2556,-0.215764 0.14777,-0.225719 c 0.1294,-0.19751 0.18588,-0.219913 0.45309,-0.176764 z M 66.517764,99.4366 c 0.157673,0.09709 1.006624,0.60331 1.887038,1.1253 l 1.601662,0.94853 3.303623,4.55513 3.304518,4.55588 2.511225,7.38576 c 1.380883,4.06214 3.012426,8.86041 3.624822,10.66282 0.61244,1.80241 1.080476,3.23974 1.039818,3.19497 -0.04066,-0.0448 -3.874674,-7.1592 -8.520254,-15.80766 -4.64558,-8.64966 -8.579957,-15.96736 -8.742646,-16.261397 l -0.296257,-0.53526 z m 67.193366,-0.0249 c 0.0166,0.01576 -3.88049,7.30607 -8.65966,16.2002 -4.77916,8.8937 -8.7219,16.20766 -8.76249,16.25244 -0.0406,0.0448 0.42903,-1.39748 1.04313,-3.20497 0.6141,-1.80823 2.24555,-6.6065 3.62482,-10.66282 l 2.50779,-7.37576 3.30124,-4.55185 3.30123,-4.55259 1.80749,-1.06719 c 0.99417,-0.587544 1.82077,-1.054758 1.83644,-1.038161 z m -67.903823,0.495529 c 0.04564,0.01164 0.536097,0.858911 1.088775,1.882111 0.649784,1.20164 0.97343,1.88048 0.912847,1.91451 -0.05063,0.0298 -2.404955,0.86058 -5.230662,1.84733 -2.826453,0.98587 -5.146034,1.78331 -5.155884,1.77182 -0.0091,-0.0119 1.854799,-1.68958 4.142737,-3.72945 2.287044,-2.03898 4.19662,-3.698709 4.242292,-3.686321 z m 68.502343,-0.01576 c 0.0357,0.01328 1.93271,1.686291 4.21647,3.717811 2.28376,2.03062 4.14274,3.70199 4.13184,3.71363 -0.0104,0.0119 -2.366,-0.79998 -5.23305,-1.80405 -2.8672,-1.00332 -5.22156,-1.83406 -5.23141,-1.84645 -0.0104,-0.0119 0.41577,-0.82489 0.94604,-1.80584 0.53112,-0.98173 0.99667,-1.83316 1.03484,-1.892115 0.0382,-0.05975 0.0995,-0.09709 0.13522,-0.08299 z m -62.629136,2.246301 c 0.285467,0.10373 3.328549,1.21407 6.762472,2.46719 3.433923,1.25309 6.244704,2.29869 6.244704,2.32197 8.3e-4,0.024 -1.614049,0.69377 -3.588253,1.48795 -1.974204,0.79335 -3.70527,1.49125 -3.847212,1.55017 l -0.258093,0.10627 -2.916155,-4.01647 c -1.60405,-2.20913 -2.916156,-4.03647 -2.916156,-4.0614 0,-0.024 0.233197,0.0406 0.518664,0.14448 z m 57.226086,-0.14776 c 0.0158,0.0149 -1.28545,1.83569 -2.89034,4.04631 l -2.91944,4.02065 -3.85139,-1.54106 c -2.11868,-0.84728 -3.85139,-1.56092 -3.85139,-1.58674 8.2e-4,-0.0249 0.51451,-0.2307 1.14106,-0.45642 0.62737,-0.22656 3.66139,-1.33359 6.74173,-2.46048 3.08123,-1.12695 5.61395,-2.03644 5.62977,-2.02241 z m -60.766428,2.28629 c 0.04896,-0.003 0.323646,0.42655 0.609112,0.95684 0.285466,0.52944 0.487961,0.99168 0.448961,1.02735 -0.03818,0.0357 -0.760159,0.25395 -1.604945,0.48465 -0.843966,0.2307 -3.99408,1.09624 -6.999042,1.9245 -3.005709,0.82737 -5.482009,1.48629 -5.504397,1.46388 -0.02158,-0.0216 0.205809,-0.40746 0.506215,-0.85642 l 0.546052,-0.81658 5.953357,-2.08868 c 3.274668,-1.14854 5.994851,-2.09122 6.044702,-2.0954 z m 63.760488,-0.007 c 0.0273,-8.2e-4 2.74601,0.94024 6.04306,2.09047 l 5.99321,2.09212 0.54771,0.82156 c 0.30041,0.45228 0.53028,0.839 0.50871,0.85974 -0.0207,0.0208 -2.29122,-0.58256 -5.04723,-1.34106 -2.75511,-0.75848 -5.9053,-1.62479 -7.00068,-1.92525 -1.09542,-0.30122 -2.02316,-0.57508 -2.06137,-0.60911 -0.039,-0.0331 0.16348,-0.4946 0.44894,-1.02404 0.28549,-0.53029 0.54107,-0.96431 0.56764,-0.96431 z m -46.41699,3.07541 c 0.04896,-0.003 0.916161,1.20414 1.927786,2.68048 l 1.838082,2.68541 -1.927785,10.75834 c -1.060565,5.91769 -1.949278,10.75909 -1.975099,10.75909 -0.02655,0 -1.853008,-5.31022 -4.060498,-11.79985 -2.206595,-6.49038 -3.977512,-11.81313 -3.936019,-11.8288 0.04233,-0.0149 1.869725,-0.75352 4.060498,-1.63972 2.190773,-0.88548 4.023184,-1.61241 4.072886,-1.61495 z m 29.10036,-0.004 c 0.0415,0 1.89286,0.73194 4.11438,1.62659 2.22152,0.89459 4.05304,1.63987 4.0696,1.65644 0.0175,0.0158 -1.77256,5.3335 -3.97676,11.81716 -2.20496,6.48292 -4.02975,11.78731 -4.05632,11.78731 -0.0257,0 -0.91451,-4.8414 -1.9751,-10.75909 l -1.92779,-10.75834 1.83809,-2.68541 c 1.01161,-1.47631 1.87211,-2.68466 1.9136,-2.68466 z m -16.161393,0.0896 h 1.277627 v 25.79733 l -0.145225,0.0406 c -0.07967,0.0233 -3.140188,0.46305 -6.800681,0.97756 -3.661389,0.51535 -6.680382,0.91203 -6.710233,0.88215 -0.02988,-0.0299 2.271372,-5.81649 5.11275,-12.85956 2.842274,-7.04308 5.352604,-13.26285 5.579174,-13.82212 l 0.410781,-1.01657 z m 3.218253,0 h 1.27632 l 0.41079,1.01658 c 0.22655,0.55932 2.7369,6.77919 5.57827,13.82211 2.84228,7.04307 5.14514,12.82881 5.11693,12.85628 -0.0273,0.0273 -0.88131,-0.0672 -1.89629,-0.20996 -1.01574,-0.14358 -3.99333,-0.56181 -6.61814,-0.92861 -2.62406,-0.36681 -4.85558,-0.68631 -4.95842,-0.70871 l -0.18672,-0.0424 v -25.8048 z m -5.451415,0.7809 c 0.0091,0.007 -2.191669,5.47291 -4.890359,12.14582 -2.699586,6.67292 -4.919464,12.12015 -4.93439,12.10598 -0.01418,-0.0149 0.758487,-4.40155 1.717036,-9.74833 0.95849,-5.34679 1.742708,-9.75416 1.742708,-9.79401 0,-0.0399 1.01658,-0.81575 2.258088,-1.7236 1.242299,-0.90786 2.670481,-1.95435 3.174219,-2.32451 0.503722,-0.37094 0.923638,-0.66803 0.932757,-0.66139 z m 7.799055,0.0573 c 0.0888,0.0639 1.53106,1.11947 3.20571,2.34525 1.67465,1.2257 3.04481,2.26212 3.04481,2.30286 0,0.0415 0.78422,4.45051 1.74271,9.79818 0.95849,5.34768 1.73032,9.7343 1.71614,9.74833 -0.0134,0.0149 -2.22659,-5.41156 -4.91693,-12.05791 -2.68958,-6.64545 -4.90453,-12.12179 -4.92185,-12.16821 -0.0175,-0.0464 0.0406,-0.0324 0.12941,0.0315 z m -3.83229,25.59733 c 0.13687,0.0175 3.29288,0.48132 7.01233,1.0315 3.72034,0.5502 6.79083,1.00912 6.82307,1.01908 0.0331,0.0104 -1.64734,2.36182 -3.73438,5.22484 l -3.79408,5.20484 H 93.600338 l -3.485416,-4.78006 c -1.917039,-2.62899 -3.624075,-4.97424 -3.792435,-5.21156 l -0.307049,-0.43069 3.501984,-0.52034 c 1.926143,-0.28712 5.052152,-0.75683 6.945907,-1.04478 1.894501,-0.28796 3.556011,-0.50953 3.692881,-0.49294 z m -15.244965,2.73272 c 0.01328,0.0564 -0.108717,0.80829 -0.27054,1.66972 -0.162659,0.86222 -0.313691,1.61659 -0.335258,1.67629 -0.02158,0.059 -0.906206,1.32529 -1.965995,2.81407 -1.058908,1.48794 -1.935248,2.67137 -1.94689,2.62988 -0.01164,-0.0415 0.454767,-1.63734 1.036491,-3.54691 l 1.058909,-3.47139 1.199149,-0.9369 c 0.668038,-0.52282 1.20994,-0.89211 1.224045,-0.83485 z m 0.805801,-0.0273 c 0.05643,0.0613 1.438152,1.94106 3.070486,4.17751 1.631513,2.23645 3.009142,4.11945 3.059739,4.18498 0.07552,0.0954 0.06722,0.10373 -0.03984,0.0415 -0.07303,-0.0424 -1.646438,-1.18919 -3.496163,-2.54854 l -3.36422,-2.47137 0.06473,-0.30871 c 0.03569,-0.17012 0.185062,-0.956 0.33278,-1.74763 0.2166,-1.16099 0.288795,-1.41659 0.372602,-1.32778 z m 28.734684,-0.0282 c 0.0166,0.0498 0.17096,0.84065 0.34274,1.75673 l 0.31203,1.66555 -3.3675,2.47137 c -1.85227,1.3585 -3.42318,2.50376 -3.49199,2.54436 -0.0681,0.0415 -0.0291,-0.0539 0.0888,-0.21161 0.11702,-0.15768 1.53435,-2.09287 3.14929,-4.30125 1.61569,-2.20913 2.95019,-3.97498 2.96675,-3.92527 z m 1.16015,0.2921 c 0.26224,0.20332 0.81161,0.63153 1.21989,0.95269 l 0.74273,0.58256 1.05807,3.47138 c 0.58256,1.90958 1.04894,3.50542 1.03733,3.54691 -0.0119,0.0415 -0.88795,-1.14189 -1.94689,-2.62988 -1.05973,-1.48877 -1.94435,-2.75511 -1.96599,-2.81407 -0.0217,-0.0597 -0.17096,-0.80496 -0.33111,-1.65554 -0.16017,-0.84978 -0.29129,-1.60823 -0.29129,-1.68465 0,-0.10373 0.12284,-0.044 0.47717,0.23069 z m -30.416795,4.09125 c 0.06555,0.0389 1.844799,1.33857 3.953481,2.8863 2.109579,1.54853 3.819003,2.8572 3.799152,2.9087 -0.01991,0.0515 -1.128611,1.76509 -2.463911,3.80736 -1.335241,2.04316 -2.453911,3.68452 -2.485404,3.64721 -0.03236,-0.0366 -0.682143,-2.97915 -1.444794,-6.53934 -0.762636,-3.56004 -1.40745,-6.54262 -1.432346,-6.62725 -0.03403,-0.11701 -0.0166,-0.13686 0.07385,-0.083 z m 29.743655,-0.0273 c 0.009,0.009 -0.62488,2.99079 -1.40827,6.62725 -0.78339,3.63557 -1.44811,6.63396 -1.47632,6.66217 -0.0282,0.0282 -1.14439,-1.62151 -2.48048,-3.66542 -1.3369,-2.0439 -2.43391,-3.76183 -2.43899,-3.81736 -0.004,-0.0557 1.746,-1.38836 3.88961,-2.96182 2.1436,-1.5742 3.90527,-2.85392 3.91437,-2.84482 z m -30.506351,0.0573 c 0.02655,0 0.686292,2.95929 1.466361,6.57665 0.779234,3.61736 1.405779,6.58903 1.39251,6.60396 -0.01418,0.0149 -1.681364,-1.4896 -3.704524,-3.34437 -2.024055,-1.8539 -3.675418,-3.41646 -3.670493,-3.47139 0.0049,-0.0548 1.012431,-1.50957 2.238983,-3.23227 1.226538,-1.72286 2.251371,-3.13273 2.277192,-3.13273 z m 31.212331,0.0191 c 0.034,0.0119 1.05807,1.42238 2.27629,3.13437 1.21741,1.71122 2.22824,3.15019 2.24555,3.19586 0.0182,0.0464 -1.63226,1.60913 -3.66721,3.47303 -2.0348,1.8639 -3.71198,3.37586 -3.72691,3.36004 -0.0149,-0.0158 0.61162,-2.98914 1.39169,-6.60739 0.78007,-3.61736 1.44644,-6.56755 1.48047,-6.55591 z m -15.61214,5.97023 h 6.36426 l 0.12373,0.14522 c 0.0681,0.0797 1.08546,1.61405 2.26048,3.409 1.17509,1.79495 2.1245,3.27541 2.10958,3.28959 -0.0158,0.0134 -1.40578,-0.96014 -3.09034,-2.1642 l -3.06213,-2.19003 h -9.434741 l -2.842274,2.05644 c -1.564348,1.13027 -2.969291,2.14525 -3.124367,2.25391 l -0.280496,0.19835 0.288794,-0.44896 c 0.15851,-0.2473 1.141059,-1.75674 2.182565,-3.35437 1.040639,-1.59749 1.948531,-2.97004 2.017338,-3.04974 l 0.123643,-0.14523 z m -0.0149,3.15839 4.50781,-0.004 3.33437,2.30286 3.33437,2.30287 -5.58081,0.0216 c -3.06959,0.0119 -8.089506,0.0119 -11.155813,0 l -5.57589,-0.0216 3.314519,-2.29794 3.313623,-2.29794 z"
       id="icon" /></g></svg>