<svg version="1.2" xmlns="http://www.w3.org/2000/svg" viewBox="0 0 780 140" width="780" height="140">
	<title>full-logo-transparent-svg</title>
	<style>
		.s0 { fill: #ffffff } 
	</style>
	<g id="g4">
		<path id="path2" fill-rule="evenodd" class="s0" d="m25.7 6.6c0 0 2.3 7.1 5 15.6 2.7 8.5 4.9 15.5 4.9 15.6 0.1 0 1.6 0.4 3.4 1 1.8 0.5 5.3 1.6 7.9 2.4 2.5 0.8 6.9 2.1 9.6 2.9l4.9 1.5 8.5-2 8.4-1.9 4-2.6c2.3-1.5 4.1-2.7 4.2-2.7 0 0 1.9 1.2 4.1 2.7l4.1 2.6 16.9 3.9 12.8-3.9c7.1-2.1 12.9-3.9 12.9-3.9 0-0.1 2.3-7.1 5-15.6 2.7-8.5 4.9-15.6 5-15.6 0-0.1 0.1-0.2 0.3-0.2q0.2 0 0.3 0.3c0 0.1 1.5 8.4 3.3 18.3 2.6 14.6 3.2 18.2 3.1 18.4-0.1 0.1-3.7 2.8-8.1 6-4.5 3.3-9.5 7-11.3 8.3-1.7 1.3-3.2 2.4-3.2 2.4 0 0.1 5 2.5 11.1 5.4 6.2 3 11.2 5.4 11.3 5.5q0.1 0.1 0 0.3c-0.1 0.1-2.5 1.7-5.4 3.5-2.9 1.9-6.5 4.1-7.9 5l-2.6 1.7-8.6-2.4c-4.8-1.3-8.7-2.4-8.7-2.3 0 0-4 7.3-8.7 16.2-4.8 8.9-8.7 16.2-8.7 16.2 0 0.1 0.8 0.7 1.7 1.4 0.9 0.7 1.6 1.3 1.7 1.3 0 0 0.7 2.4 1.6 5.3 0.9 2.9 1.6 5.4 1.6 5.4 0 0.1-0.6 0.7-1.3 1.4-0.7 0.7-2.9 2.6-4.8 4.4l-3.6 3.2h-27.9l-4.8-4.4c-2.6-2.4-4.8-4.5-4.8-4.6-0.1 0 0.7-2.5 1.5-5.4 0.9-2.9 1.6-5.2 1.7-5.2 0-0.1 0.7-0.7 1.7-1.4 0.9-0.7 1.7-1.4 1.7-1.4 0-0.1-3.9-7.4-8.7-16.3-4.8-8.9-8.7-16.1-8.7-16.1 0-0.1-3.4 0.9-7.6 2-4.1 1.1-8 2.2-8.6 2.4l-1.2 0.3-0.3-0.1c-0.1-0.1-3.7-2.4-7.9-5.1-4.1-2.7-7.6-4.9-7.6-5-0.1-0.1 0-0.2 0-0.3 0.1-0.1 5.1-2.5 11.2-5.5 6.1-2.9 11.1-5.3 11.1-5.4 0 0-5.1-3.8-11.3-8.4-6.2-4.5-11.3-8.3-11.3-8.4 0-0.1 1.4-8.3 3.2-18.4 1.8-10.1 3.3-18.3 3.4-18.4 0-0.1 0.1-0.1 0.2-0.1 0.1 0 0.3 0.1 0.3 0.2zm116.9 16.8c-2.5 7.9-4.5 14.3-4.5 14.4 0 0 2.1 0.4 4.7 0.8 2.6 0.5 4.7 0.9 4.7 0.9 0-0.1 0-6.6-0.1-14.5-0.1-7.9-0.2-14.7-0.2-15.1l-0.1-0.7zm-116.8-13.6c-0.1 0.5-0.2 7.3-0.2 15.2-0.1 7.9-0.2 14.3-0.1 14.4 0 0 2.1-0.4 4.7-0.8 2.5-0.5 4.6-0.9 4.7-0.9 0 0-2-6.4-4.5-14.1-2.4-7.8-4.5-14.2-4.5-14.3q0-0.1 0-0.1c-0.1 0-0.1 0.2-0.1 0.6zm-0.8 1.5c0 0-1.3 7.1-2.8 15.6-1.5 8.5-2.7 15.5-2.7 15.5 0 0 1.1-0.6 2.5-1.3 1.4-0.8 2.6-1.4 2.6-1.4 0.1-0.1 0.2-5.2 0.3-14.3 0.1-7.8 0.1-14.2 0.1-14.2q0-0.1 0 0.1zm123 2.4c0 1.4 0.1 7.7 0.2 13.9 0 6.2 0.1 11.5 0.1 11.7l0.1 0.4 2.6 1.4c1.4 0.7 2.5 1.3 2.5 1.3 0.1 0-1.2-7-2.7-15.5-1.5-8.5-2.8-15.5-2.8-15.6 0-0.1 0 1 0 2.4zm-62.4 24c-0.4 0.2-2.1 1.3-3.7 2.4l-3 2 3.8 6.3c2 3.4 3.8 6.2 3.8 6.2 0.1 0 1.8-2.8 3.8-6.2 2.1-3.4 3.7-6.3 3.7-6.3 0 0-1.6-1.2-3.7-2.5-2-1.3-3.7-2.5-3.8-2.5-0.1 0.1-0.5 0.3-0.9 0.6zm48.7 1.6c-1.7 0.6-5.1 1.6-7.4 2.3-2.3 0.7-6 1.8-8.2 2.5-2.2 0.7-4.5 1.4-5.2 1.5-0.7 0.2-1.2 0.4-1.2 0.5 0 0 1.5 1.9 3.3 4.1 1.9 2.2 3.5 4 3.5 4 0.1 0 6.3-3.2 13.9-7.1 7.5-3.8 13.7-7 13.7-7 0-0.1-2-0.5-4.4-0.9-2.5-0.5-4.6-0.8-4.7-0.8 0 0-1.5 0.4-3.3 0.9zm-103.2-0.2c-2.2 0.4-4.2 0.8-4.4 0.8-0.3 0.1-0.4 0.1-0.4 0.1 0 0.1 6.2 3.3 13.7 7.1 7.6 3.9 13.9 7.1 13.9 7.1 0.1 0 1.7-1.8 3.5-4.1 1.9-2.2 3.3-4 3.3-4 0-0.1-5.7-1.8-12.6-3.9-7-2.1-12.7-3.8-12.9-3.8-0.1 0-2 0.3-4.1 0.7zm244.8-0.7c12.8 0 23.3 10.5 23.3 23.3 0 6-2.3 11.4-5.9 15.5 3.6 4.1 5.9 9.6 5.9 15.6 0 12.8-10.5 23.2-23.3 23.2h-67.4c-1.2 0-2.3-1.1-2.3-2.3v-42c0-1.2 1-2.3 2.3-2.3h67.4c4.2 0 7.6-3.5 7.6-7.7 0-4.2-3.4-7.6-7.6-7.6h-67.4c-1.2 0-2.3-1-2.3-2.4v-10.9c0-1.4 1-2.4 2.3-2.4zm52.2 0c1.4 0 2.4 1 2.4 2.4v72.9c0 1.2-1 2.4-2.4 2.4h-11c-1.2 0-2.3-1.2-2.3-2.4v-72.9c0-1.4 1.1-2.4 2.3-2.4zm105.2 0c1.3 0 2.4 1 2.4 2.4v10.9c0 1.4-1.1 2.4-2.4 2.4h-36.8v59.6c0 1.2-1 2.4-2.3 2.4h-11c-1.3 0-2.3-1.2-2.3-2.4v-59.6h-36.8c-1.2 0-2.3-1-2.3-2.4v-10.9c0-1.4 1.1-2.4 2.3-2.4zm77.2 0c17.1 0 30.9 13.9 30.9 31v15.7c0 17.1-13.8 31-30.9 31h-37.6c-17.1 0-30.9-13.9-30.9-31v-15.7c0-17.1 13.8-31 30.9-31zm115 0c12.8 0 23.3 10.5 23.3 23.3 0 9.8-5.9 18.2-14.5 21.6l16.5 29.2c0.9 1.6-0.2 3.5-2 3.5h-12.6c-0.9 0-1.7-0.4-2.1-1.2l-13.7-24.4c-1.9-3.3-5.5-5.3-9.3-5.3h-39.6v28.6c0 1.2-1 2.3-2.4 2.3h-11c-1.2 0-2.3-1.1-2.3-2.3v-42c0-1.2 1.1-2.3 2.3-2.3h67.4c4.2 0 7.6-3.5 7.6-7.7 0-4.2-3.4-7.6-7.6-7.6h-67.4c-1.2 0-2.3-1-2.3-2.4v-10.9c0-1.4 1.1-2.4 2.3-2.4zm105.1 0c17.1 0 30.9 13.9 30.9 31v15.7c0 17.1-13.8 31-30.9 31h-37.6c-17.1 0-30.9-13.9-30.9-31v-15.7c0-17.1 13.8-31 30.9-31zm-708 3.3c-1.5 0.8-2.7 1.4-2.7 1.5 0 0 1 0.7 2.1 1.6 1.1 0.8 7.2 5.3 13.4 9.8 6.2 4.6 11.4 8.4 11.4 8.4 0.1 0 1.6-1.8 3.5-4.1 1.8-2.2 3.3-4.1 3.3-4.1-0.1 0-6-3.1-13.2-6.8-7.2-3.6-13.5-6.9-14.1-7.2l-1-0.5zm111.5 5.7c-7.6 3.9-14 7.2-14.2 7.3l-0.2 0.1 3.4 4.1c1.8 2.2 3.4 4.1 3.4 4.1 0.1 0 6.1-4.4 13.5-9.9 7.4-5.4 13.4-9.9 13.4-10 0.1 0-0.6-0.4-1.5-0.8-0.8-0.5-2-1.1-2.7-1.5l-1.1-0.6zm-42.9 1c-1.9 3.3-3.6 6.1-3.6 6.2l-0.2 0.2 0.3-0.1c0.2-0.1 5.4-2 11.5-4.4 6.1-2.3 11.1-4.3 11.1-4.3 0 0-3.4-0.8-7.6-1.8-4.2-1-7.7-1.8-7.8-1.8 0 0-1.7 2.7-3.7 6zm-19.2-4.6c-3.3 0.8-6.7 1.6-7.6 1.8-0.8 0.2-1.5 0.4-1.5 0.4 0 0 4.9 1.9 10.9 4.2 6 2.3 11.1 4.3 11.4 4.4l0.6 0.2-0.2-0.2c0-0.1-1.7-2.9-3.6-6.2-2.9-4.9-3.6-6-3.8-6-0.1 0-2.9 0.7-6.2 1.4zm27 7.3c-10.4 4-12 4.6-12 4.8 0 0.1 0.8 4.8 1.7 10.4 0.9 5.6 1.6 10.2 1.6 10.2 0.1 0 4.8-3.4 10.5-7.6l10.4-7.5v-7.5c0-4.1 0-7.4-0.1-7.4 0 0-5.4 2.1-12.1 4.6zm-36.9 2.8v7.5l0.5 0.4c0.4 0.2 5.1 3.6 10.5 7.6 5.4 3.9 9.8 7.1 9.8 7.1 0 0 0.8-4.6 1.7-10.2 0.9-5.6 1.7-10.3 1.7-10.4 0-0.2-1.7-0.8-12-4.8-6.6-2.5-12.1-4.6-12.1-4.6-0.1 0-0.1 1.5-0.1 7.4zm-7.8 1.4l-7 8.4 0.3 1.5c0.1 0.8 0.3 1.4 0.3 1.4 0.1 0 3.1-1.2 6.8-2.6l6.6-2.7v-7.2c0-3.9 0-7.1 0-7.1 0 0-3.2 3.7-7 8.3zm57.7-1.2v7.2l6.6 2.7c3.7 1.4 6.7 2.6 6.8 2.6 0 0 0.2-0.7 0.3-1.5l0.3-1.4-6.9-8.3c-3.9-4.6-7-8.4-7.1-8.4 0-0.1 0 3.1 0 7.1zm345.6 15.3v15.8c0 8.4 6.9 15.3 15.3 15.3h37.6c8.5 0 15.3-6.9 15.3-15.3v-15.8c0-8.4-6.8-15.3-15.3-15.3h-37.6c-8.4 0-15.3 6.9-15.3 15.3zm220.1 0v15.8c0 8.4 6.8 15.3 15.3 15.3h37.6c8.4 0 15.3-6.9 15.3-15.3v-15.8c0-8.4-6.9-15.3-15.3-15.3h-37.6c-8.5 0-15.3 6.9-15.3 15.3zm-592.6-2.2c-0.9 5.1-1.5 9.4-1.5 9.4 0 0 1.4 0.1 3 0.1 1.7 0 3.1-0.1 3.1-0.1 0 0-0.7-4.3-1.5-9.4-0.8-5.2-1.5-9.4-1.6-9.4 0 0-0.7 4.2-1.5 9.4zm-50.6-3c-4.2 2-8.2 4-8.9 4.3-0.8 0.4-1.9 0.9-2.6 1.3-0.7 0.3-1.2 0.6-1.1 0.6 0 0 5.7-0.8 12.6-1.7 6.9-1 12.6-1.8 12.6-1.8 0 0-0.1-0.7-0.3-1.6l-0.3-1.5-1.8-1.3c-1-0.7-1.9-1.5-2.2-1.6l-0.4-0.3zm94.5-2.1l-2.2 1.6-0.3 1.6c-0.2 0.8-0.3 1.5-0.3 1.5 0 0 0.6 0.1 1.4 0.2 0.8 0.1 6.4 0.9 12.6 1.8 6.1 0.8 11.2 1.5 11.2 1.5 0.1 0-4.5-2.2-10-4.9-5.6-2.7-10.2-4.9-10.2-4.9 0 0-1 0.7-2.2 1.6zm-74.1 2.4c-3.4 1.4-6.3 2.6-6.4 2.6-0.1 0.1 0.3 0.4 2.1 1.4 1.2 0.8 2.3 1.4 2.3 1.4 0.1 0 1.8-1 3.9-2.2 2-1.1 3.9-2.2 4.1-2.3l0.3-0.2v-1.6c0-0.9 0-1.6-0.1-1.6 0 0-2.8 1.1-6.2 2.5zm57.2-0.9v1.6l0.2 0.1c0.2 0.1 1.2 0.7 2.3 1.3 1 0.6 2.8 1.6 3.8 2.2 1 0.6 1.9 1.1 2 1.1 0 0 1.1-0.6 2.3-1.4 1.4-0.8 2.2-1.3 2.1-1.4-0.1 0-2.9-1.1-6.3-2.5-3.4-1.4-6.2-2.5-6.3-2.6-0.1 0-0.1 0.1-0.1 1.6zm-5.6 2.1c-2.6 1.9-7.1 5.1-9.9 7.1-2.8 2-5.2 3.8-5.4 4-0.2 0.1-0.4 0.3-0.4 0.3 0 0 1.7 1.3 3.7 2.8 2.1 1.5 3.8 2.7 3.9 2.7 0 0 1-1.4 2.1-3.1 1.7-2.4 3-4.2 6.5-8.6l4.4-5.6v-1.5c0-0.9 0-1.6-0.1-1.6 0 0-2.2 1.6-4.8 3.5zm-44.6-2v1.6l4.4 5.6c3.5 4.4 4.8 6.2 6.4 8.6 1.2 1.7 2.2 3.1 2.2 3.1 0.1 0 1.8-1.2 3.9-2.7 2-1.5 3.7-2.8 3.7-2.8 0 0-4.6-3.4-10.2-7.5-5.7-4-10.3-7.4-10.3-7.4-0.1 0-0.1 0.6-0.1 1.5zm46 7.2c-2.1 2.7-3.9 4.9-3.8 5 0 0 3.4-1.3 7.6-2.8 4.2-1.5 7.7-2.8 7.7-2.9 0 0-1.7-1-3.8-2.1-2-1.2-3.7-2.2-3.7-2.2-0.1 0-1.8 2.3-4 5zm-50.3-2.8c-2 1.1-3.7 2.1-3.7 2.1 0 0.1 3.4 1.4 7.6 2.9 4.3 1.5 7.7 2.8 7.7 2.8 0-0.1-1.7-2.3-3.8-5-2.2-2.7-3.9-4.9-4-4.9 0-0.1-1.7 0.9-3.8 2.1zm-12.8-0.2c-1.1 0.1-7 0.9-13 1.8-5.9 0.8-10.9 1.5-11.1 1.6h-0.3l1.9 1.2c1 0.7 4.2 2.7 7.1 4.6 2.9 1.8 5.3 3.4 5.4 3.4 0 0 0.4-0.6 0.9-1.3l0.8-1.3 5.3-4.7c2.9-2.6 5.4-4.8 5.6-4.9l0.2-0.3-0.1-0.2c-0.1-0.2-0.2-0.3-0.3-0.3-0.1 0-1.2 0.2-2.4 0.4zm81-0.1l-0.2 0.2 0.3 0.3c0.2 0.1 2.7 2.3 5.6 4.9l5.3 4.7 0.8 1.3c0.5 0.7 0.9 1.3 0.9 1.3 0.1 0 2.7-1.7 5.9-3.7 3.2-2.1 6.4-4.1 7.1-4.6l1.4-0.9h-0.3c-0.2-0.1-6.1-0.9-13.1-1.9-7.1-1-13-1.8-13.2-1.8q-0.2-0.1-0.3 0-0.1 0-0.2 0.2zm-77.1 0.9c0.2 0.3 4.7 8.6 9.9 18.3 5.3 9.8 9.6 17.9 9.6 17.9 0.1 0.1-0.4-1.6-1.1-3.6-0.7-2-2.6-7.5-4.1-12.1l-2.9-8.3-3.7-5.2-3.7-5.1-1.8-1.1c-1-0.6-2-1.1-2.2-1.3l-0.3-0.2zm73.9 0.8l-2.1 1.2-3.7 5.1-3.7 5.2-2.9 8.3c-1.5 4.6-3.4 10-4.1 12.1-0.7 2-1.2 3.7-1.1 3.6 0-0.1 4.5-8.3 9.9-18.4 5.4-10 9.8-18.3 9.8-18.3-0.1 0-1 0.5-2.1 1.2zm2.6-0.6c-0.1 0.1-0.6 1.1-1.2 2.2-0.6 1.1-1.1 2-1.1 2 0 0 2.7 1 6 2.1 3.2 1.2 5.9 2.1 5.9 2.1 0-0.1-2.1-1.9-4.7-4.2-2.6-2.3-4.7-4.2-4.8-4.2 0-0.1-0.1 0-0.1 0zm-82.1 4.1c-2.6 2.3-4.7 4.2-4.7 4.3 0 0 2.6-0.9 5.8-2 3.2-1.2 5.9-2.1 5.9-2.1 0.1-0.1-0.3-0.8-1-2.2-0.6-1.2-1.2-2.1-1.2-2.1-0.1 0-2.2 1.8-4.8 4.1zm69.8 0.5c-3.5 1.3-7 2.5-7.7 2.8-0.7 0.2-1.3 0.5-1.3 0.5 0 0 2 0.8 4.4 1.8l4.4 1.7 3.3-4.5c1.8-2.5 3.2-4.6 3.2-4.6 0 0-2.9 1-6.3 2.3zm-55.7 2.3l3.3 4.6 0.3-0.2c0.2 0 2.1-0.8 4.4-1.7 2.2-0.9 4-1.7 4-1.7 0 0-3.2-1.2-7-2.6-3.9-1.4-7.4-2.7-7.7-2.8-0.3-0.1-0.6-0.2-0.6-0.2 0 0.1 1.5 2.1 3.3 4.6zm64.8-0.9c-0.4 0.6-0.6 1.1-0.5 1.1 0 0.1 1 0.4 2.3 0.7 1.2 0.4 4.8 1.4 7.9 2.2 3.1 0.9 5.7 1.6 5.7 1.5 0 0-0.2-0.4-0.6-0.9l-0.6-1-6.8-2.3c-3.7-1.3-6.8-2.4-6.8-2.4 0 0-0.3 0.5-0.6 1.1zm-78.3 1.3l-6.7 2.3-0.7 1c-0.3 0.5-0.6 0.9-0.5 0.9 0 0.1 2.8-0.7 6.2-1.6 3.4-1 6.9-1.9 7.9-2.2 1-0.3 1.8-0.5 1.8-0.5 0.1-0.1-0.2-0.6-0.5-1.2-0.3-0.6-0.6-1.1-0.7-1.1 0 0-3.1 1.1-6.8 2.4zm57.2 4.1l-2.1 3 2.2 12.2c1.2 6.7 2.2 12.2 2.2 12.2 0 0 2.1-6 4.6-13.4 2.5-7.3 4.5-13.3 4.5-13.3 0 0-2.1-0.9-4.6-1.9-2.5-1-4.6-1.8-4.7-1.8 0 0-1 1.3-2.1 3zm-35.4-1.2c-2.5 1-4.5 1.8-4.6 1.9 0 0 2 6 4.5 13.3 2.5 7.4 4.5 13.4 4.6 13.4 0 0 1-5.5 2.2-12.2l2.2-12.2-2.1-3c-1.1-1.7-2.1-3-2.2-3 0 0-2.1 0.8-4.6 1.8zm17.3-0.6c-0.2 0.7-3 7.7-6.3 15.7-3.2 7.9-5.8 14.5-5.7 14.5 0 0 3.4-0.4 7.5-1 4.2-0.6 7.6-1.1 7.7-1.1l0.2-0.1v-29.1h-2.9zm4.1 28h0.2c0.1 0.1 2.7 0.4 5.6 0.8 3 0.5 6.4 0.9 7.5 1.1 1.2 0.2 2.1 0.3 2.2 0.2 0 0-2.6-6.5-5.8-14.5-3.2-8-6.1-15-6.3-15.6l-0.5-1.2h-2.9zm-5.8-27.5c-0.5 0.4-2.1 1.6-3.5 2.6-1.4 1-2.6 1.9-2.6 2 0 0-0.9 5-2 11-1.1 6.1-1.9 11-1.9 11 0 0.1 2.5-6.1 5.6-13.6 3-7.6 5.5-13.8 5.5-13.8 0 0-0.5 0.4-1.1 0.8zm15.3 13c3.1 7.5 5.6 13.7 5.6 13.6 0 0-0.9-4.9-1.9-11-1.1-6-2-11-2-11.1 0 0-1.6-1.2-3.5-2.6-1.9-1.3-3.5-2.5-3.6-2.6-0.1-0.1-0.2-0.1-0.1 0 0 0 2.5 6.2 5.5 13.7zm125.5 8.5h54c4.2 0 7.6-3.5 7.6-7.7 0-4.2-3.4-7.6-7.6-7.6h-54zm-139.4 7.3c-2.1 0.3-5.7 0.8-7.8 1.2l-4 0.6 0.3 0.4c0.2 0.3 2.2 3 4.3 5.9l4 5.4h14.5l4.3-5.8c2.4-3.3 4.3-5.9 4.2-5.9 0-0.1-3.5-0.6-7.7-1.2-4.2-0.6-7.8-1.1-7.9-1.2-0.2 0-2.1 0.3-4.2 0.6zm17 6.9c-1.8 2.5-3.4 4.7-3.6 4.9-0.1 0.1-0.1 0.2-0.1 0.2 0.1 0 1.9-1.3 4-2.9l3.8-2.8-0.4-1.9c-0.2-1-0.3-1.9-0.4-1.9 0-0.1-1.5 1.9-3.3 4.4zm-29.6-2.9c-0.1 0.9-0.3 1.8-0.3 2l-0.1 0.3 3.8 2.8c2.1 1.5 3.9 2.8 3.9 2.9q0.2 0.1 0.1-0.1c-0.1 0-1.6-2.2-3.5-4.7-1.8-2.5-3.4-4.6-3.4-4.7-0.1-0.1-0.2 0.2-0.5 1.5zm33.7-1.5c0 0.1 0.2 1 0.3 1.9 0.2 1 0.4 1.8 0.4 1.9 0 0.1 1 1.5 2.2 3.2 1.2 1.7 2.2 3 2.2 3 0.1-0.1-0.5-1.9-1.1-4l-1.2-4-0.9-0.6c-0.4-0.4-1-0.9-1.3-1.1q-0.3-0.2-0.5-0.3-0.1-0.1-0.1 0zm-35.5 1l-1.4 1-1.2 4c-0.6 2.1-1.2 3.9-1.2 4 0.1 0 1-1.3 2.2-3 1.2-1.7 2.2-3.1 2.3-3.2 0-0.1 0.2-0.9 0.3-1.9 0.2-1 0.4-1.8 0.3-1.9 0 0-0.6 0.4-1.3 1zm30.9 7.1c-2.5 1.8-4.4 3.3-4.4 3.3 0 0.1 1.2 2.1 2.7 4.4 1.5 2.3 2.8 4.1 2.8 4.1 0.1 0 0.8-3.4 1.7-7.5 0.9-4.1 1.6-7.5 1.6-7.5 0 0-2 1.4-4.4 3.2zm-29.3-3.1c0 0.1 0.7 3.5 1.6 7.5 0.9 4 1.6 7.4 1.6 7.4 0.1 0 1.3-1.8 2.8-4.1 1.6-2.3 2.8-4.3 2.8-4.3 0.1-0.1-1.9-1.6-4.3-3.3-2.3-1.8-4.4-3.2-4.4-3.3q-0.1 0-0.1 0 0 0 0 0.1zm-3.4 3.5c-1.4 1.9-2.5 3.6-2.5 3.6 0 0.1 1.9 1.9 4.1 4 2.3 2.1 4.2 3.8 4.2 3.8 0.1-0.1-0.7-3.4-1.5-7.5-0.9-4.1-1.7-7.4-1.7-7.4 0 0-1.2 1.5-2.6 3.5zm36.2 3.9c-0.9 4.1-1.6 7.4-1.6 7.5 0.1 0 2-1.7 4.3-3.8 2.3-2.2 4.1-3.9 4.1-4 0 0-1.2-1.6-2.5-3.6-1.4-1.9-2.6-3.5-2.6-3.5 0 0-0.8 3.3-1.7 7.4zm-23.3-0.5c-0.1 0.1-1.1 1.6-2.3 3.4-1.1 1.8-2.3 3.5-2.4 3.8l-0.4 0.5 0.4-0.2c0.1-0.1 1.7-1.3 3.5-2.5l3.2-2.4h10.7l3.4 2.5c1.9 1.4 3.5 2.5 3.5 2.5 0-0.1-1-1.7-2.4-3.8-1.3-2-2.4-3.7-2.5-3.8l-0.2-0.2h-14.4zm2.3 3.4l-3.8 2.6-3.7 2.6 6.3 0.1c3.4 0 9.1 0 12.6 0l6.3-0.1-3.8-2.6-3.7-2.6z"/>
	</g>
</svg>