<?xml version="1.0" encoding="UTF-8" standalone="no"?>
<svg
   xmlns:dc="http://purl.org/dc/elements/1.1/"
   xmlns:cc="http://creativecommons.org/ns#"
   xmlns:rdf="http://www.w3.org/1999/02/22-rdf-syntax-ns#"
   xmlns:svg="http://www.w3.org/2000/svg"
   xmlns="http://www.w3.org/2000/svg"
   id="svg6"
   xml:space="preserve"
   enable-background="new 0 0 1024 1024"
   viewBox="0 0 1024 1024"
   y="0px"
   x="0px"
   version="1.1"><metadata
     id="metadata12"><rdf:RDF><cc:Work
         rdf:about=""><dc:format>image/svg+xml</dc:format><dc:type
           rdf:resource="http://purl.org/dc/dcmitype/StillImage" /></cc:Work></rdf:RDF></metadata><defs
     id="defs10" /><g
     id="g4"
     transform="translate(0,128)"><path
       style="fill:#003680"
       id="path2"
       d="m 147.43,321.38 c -0.11,-0.01 -0.23,0.03 -0.27,0.1 -0.04,0.07 -1.54,8.35 -3.33,18.41 -1.79,10.06 -3.23,18.35 -3.21,18.42 0.03,0.06 5.13,3.86 11.33,8.43 6.2,4.57 11.28,8.34 11.29,8.37 0.01,0.04 -4.99,2.47 -11.1,5.41 -6.12,2.94 -11.17,5.4 -11.22,5.46 -0.05,0.07 -0.07,0.19 -0.04,0.29 0.03,0.09 3.48,2.36 7.67,5.04 4.18,2.69 7.74,4.95 7.9,5.04 l 0.29,0.15 1.13,-0.31 c 0.62,-0.18 4.52,-1.25 8.66,-2.39 4.15,-1.14 7.55,-2.06 7.57,-2.05 0.01,0.02 3.92,7.29 8.69,16.17 4.77,8.87 8.67,16.18 8.67,16.25 0,0.06 -0.76,0.71 -1.69,1.44 -0.93,0.73 -1.7,1.33 -1.71,1.35 -0.01,0.01 -0.74,2.38 -1.62,5.27 -0.88,2.88 -1.59,5.32 -1.57,5.41 0.01,0.09 2.19,2.14 4.84,4.57 l 4.82,4.41 h 27.92 l 3.51,-3.21 c 1.92,-1.77 4.1,-3.76 4.84,-4.43 0.73,-0.67 1.33,-1.28 1.33,-1.35 0,-0.08 -0.72,-2.5 -1.6,-5.4 -0.88,-2.89 -1.63,-5.29 -1.66,-5.32 -0.04,-0.03 -0.81,-0.64 -1.71,-1.35 -0.9,-0.7 -1.66,-1.31 -1.67,-1.35 -0.01,-0.04 3.89,-7.35 8.67,-16.25 4.78,-8.9 8.7,-16.19 8.72,-16.21 0.01,-0.01 3.92,1.04 8.68,2.36 l 8.66,2.38 2.58,-1.65 c 1.42,-0.91 4.96,-3.17 7.88,-5.03 2.91,-1.86 5.34,-3.45 5.39,-3.53 0.07,-0.11 0.07,-0.2 -0.01,-0.28 -0.05,-0.07 -5.1,-2.54 -11.22,-5.48 -6.12,-2.94 -11.12,-5.37 -11.12,-5.39 0,-0.03 1.44,-1.11 3.21,-2.41 1.76,-1.3 6.82,-5.03 11.23,-8.28 4.41,-3.25 8.07,-5.99 8.13,-6.08 0.09,-0.13 -0.53,-3.75 -3.12,-18.32 -1.77,-9.99 -3.25,-18.26 -3.3,-18.39 -0.05,-0.17 -0.14,-0.24 -0.3,-0.24 -0.12,0 -0.26,0.07 -0.3,0.14 -0.05,0.08 -2.3,7.12 -5,15.66 -2.7,8.53 -4.93,15.53 -4.95,15.55 -0.03,0.02 -5.83,1.79 -12.89,3.93 l -12.85,3.9 -8.44,-1.94 -8.44,-1.94 -4.06,-2.66 c -2.23,-1.46 -4.1,-2.66 -4.15,-2.66 -0.05,0 -1.92,1.2 -4.15,2.66 l -4.06,2.66 -8.42,1.93 -8.42,1.94 -4.95,-1.49 c -2.72,-0.83 -7.04,-2.13 -9.6,-2.91 -2.55,-0.77 -6.12,-1.85 -7.92,-2.4 -1.8,-0.55 -3.3,-1.01 -3.32,-1.03 -0.02,-0.03 -2.25,-7.02 -4.95,-15.55 -2.7,-8.53 -4.95,-15.58 -4.99,-15.65 -0.05,-0.08 -0.17,-0.16 -0.28,-0.17 z m 121.71,2.78 0.07,0.74 c 0.04,0.4 0.13,7.21 0.21,15.13 0.08,7.91 0.13,14.41 0.11,14.43 -0.03,0.03 -2.15,-0.34 -4.71,-0.81 -2.57,-0.47 -4.68,-0.86 -4.7,-0.88 -0.01,-0.02 2.01,-6.46 4.5,-14.32 z m -121.29,0.14 c 0.01,0 0.02,0.02 0.04,0.07 0.04,0.13 2.08,6.56 4.53,14.3 2.46,7.74 4.45,14.08 4.43,14.1 -0.02,0.02 -2.14,0.42 -4.7,0.89 -2.56,0.47 -4.67,0.83 -4.7,0.81 -0.03,-0.03 0.02,-6.51 0.1,-14.4 0.08,-7.89 0.17,-14.7 0.2,-15.14 0.03,-0.46 0.06,-0.64 0.1,-0.63 z m -0.87,1.95 c 0.02,0.03 -0.03,6.43 -0.12,14.23 -0.1,9.08 -0.19,14.22 -0.25,14.27 -0.05,0.05 -1.23,0.69 -2.61,1.43 -1.38,0.73 -2.53,1.31 -2.55,1.29 -0.01,-0.01 1.21,-6.99 2.73,-15.51 1.51,-8.51 2.76,-15.54 2.76,-15.61 0,-0.08 0.01,-0.12 0.04,-0.1 z M 270,326.38 c 0.03,0.1 1.29,7.12 2.8,15.62 1.51,8.49 2.74,15.46 2.72,15.47 -0.01,0.02 -1.18,-0.58 -2.59,-1.33 l -2.56,-1.36 -0.07,-0.4 c -0.03,-0.23 -0.1,-5.5 -0.16,-11.71 -0.06,-6.22 -0.13,-12.47 -0.15,-13.89 -0.02,-1.42 -0.01,-2.5 0.01,-2.4 z m -61.53,25.86 c 0.07,0 1.8,1.1 3.84,2.44 2.05,1.35 3.72,2.48 3.72,2.51 -0.01,0.04 -1.69,2.88 -3.74,6.31 -2.04,3.43 -3.75,6.23 -3.8,6.23 -0.05,0 -1.78,-2.83 -3.84,-6.28 l -3.74,-6.29 2.97,-1.95 c 1.63,-1.08 3.3,-2.18 3.72,-2.46 0.41,-0.28 0.8,-0.51 0.87,-0.51 z m 51.15,1.22 c 0.08,-0.01 2.16,0.36 4.62,0.81 2.47,0.45 4.48,0.84 4.48,0.87 0,0.03 -6.19,3.22 -13.75,7.09 -7.56,3.87 -13.8,7.05 -13.87,7.06 -0.06,0.02 -1.62,-1.79 -3.47,-4 -1.85,-2.22 -3.36,-4.07 -3.35,-4.11 0,-0.04 0.54,-0.24 1.2,-0.44 0.66,-0.19 3,-0.9 5.19,-1.56 2.19,-0.67 5.89,-1.79 8.21,-2.49 2.32,-0.71 5.66,-1.72 7.41,-2.25 1.76,-0.54 3.26,-0.98 3.33,-0.98 z m -102.39,0 c 0.11,0 5.88,1.71 12.81,3.81 6.93,2.09 12.63,3.84 12.66,3.87 0.03,0.03 -1.45,1.87 -3.3,4.09 -1.85,2.22 -3.42,4.04 -3.49,4.04 -0.07,0 -6.32,-3.17 -13.89,-7.04 -7.57,-3.87 -13.76,-7.06 -13.76,-7.1 -0.01,-0.03 0.17,-0.08 0.39,-0.11 0.22,-0.04 2.19,-0.4 4.39,-0.81 2.19,-0.4 4.08,-0.74 4.19,-0.75 z m 173.3,0.07 c -1.33,0 -2.33,0.99 -2.33,2.32 v 10.98 c 0,1.33 1.11,2.33 2.33,2.33 h 67.31 c 4.21,0 7.65,3.44 7.65,7.65 0,4.21 -3.44,7.65 -7.65,7.65 h -67.31 c -1.33,0 -2.33,1.11 -2.33,2.33 v 42.02 c 0,1.22 1.11,2.33 2.33,2.33 h 67.31 c 12.86,0 23.39,-10.42 23.39,-23.28 0,-5.99 -2.33,-11.42 -5.99,-15.53 3.66,-4.1 5.99,-9.53 5.99,-15.52 0,-12.86 -10.53,-23.28 -23.39,-23.28 z m 108.51,0 c -1.21,0 -2.32,0.99 -2.32,2.32 v 72.96 c 0,1.22 1.11,2.33 2.32,2.33 h 10.98 c 1.33,0 2.33,-1.11 2.33,-2.33 v -72.96 c 0,-1.33 -1,-2.32 -2.33,-2.32 z m 26.92,0 c -1.21,0 -2.32,0.99 -2.32,2.32 v 10.98 c 0,1.33 1.11,2.33 2.32,2.33 h 36.82 v 59.65 c 0,1.22 0.99,2.33 2.33,2.33 h 10.97 c 1.33,0 2.33,-1.11 2.33,-2.33 v -59.65 h 36.81 c 1.22,0 2.33,-1 2.33,-2.33 v -10.98 c 0,-1.33 -1.11,-2.32 -2.33,-2.32 z m 128.86,0 c -17.07,0 -30.93,13.86 -30.93,30.93 v 15.75 c 0,17.07 13.86,30.93 30.93,30.93 h 37.59 c 17.08,0 30.94,-13.86 30.94,-30.93 v -15.75 c 0,-17.07 -13.86,-30.93 -30.94,-30.93 z m 85.24,0 c -1.22,0 -2.32,0.99 -2.32,2.32 v 10.98 c 0,1.33 1.1,2.33 2.32,2.33 h 67.31 c 4.21,0 7.65,3.44 7.65,7.65 0,4.21 -3.44,7.65 -7.65,7.65 h -67.31 c -1.22,0 -2.32,1.11 -2.32,2.33 v 42.02 c 0,1.22 1.1,2.33 2.32,2.33 h 10.98 c 1.33,0 2.33,-1.11 2.33,-2.33 v -28.6 h 39.69 c 3.77,0 7.32,1.99 9.21,5.32 l 13.75,24.39 c 0.44,0.78 1.22,1.22 2.1,1.22 h 12.64 c 1.78,0 2.89,-1.99 2,-3.55 l -16.52,-29.16 c 8.54,-3.44 14.52,-11.86 14.52,-21.62 0,-12.86 -10.53,-23.28 -23.39,-23.28 z m 134.79,0 c -17.07,0 -30.93,13.86 -30.93,30.93 v 15.75 c 0,17.07 13.86,30.93 30.93,30.93 h 37.59 c 17.07,0 30.94,-13.86 30.94,-30.93 v -15.75 c 0,-17.07 -13.87,-30.93 -30.94,-30.93 z m -667.75,1.81 1.01,0.55 c 0.57,0.3 6.92,3.55 14.12,7.23 7.2,3.68 13.13,6.72 13.17,6.76 0.04,0.03 -1.45,1.9 -3.31,4.13 -1.84,2.24 -3.41,4.07 -3.46,4.07 -0.05,0 -5.18,-3.75 -11.42,-8.35 -6.23,-4.59 -12.25,-9.03 -13.39,-9.87 -1.14,-0.85 -2.08,-1.56 -2.09,-1.6 -0.01,-0.04 1.19,-0.71 2.67,-1.49 z m 122.8,0.02 1.17,0.6 c 0.65,0.34 1.86,0.98 2.7,1.42 0.84,0.45 1.51,0.84 1.5,0.88 -0.02,0.04 -6.06,4.53 -13.44,9.97 -7.38,5.44 -13.45,9.89 -13.49,9.88 -0.04,-0.02 -1.59,-1.86 -3.46,-4.1 l -3.39,-4.07 0.27,-0.15 c 0.15,-0.08 6.54,-3.36 14.2,-7.29 z m -53.11,2.13 c 0.05,0 3.55,0.79 7.77,1.75 4.22,0.97 7.67,1.79 7.66,1.81 0,0.03 -5.01,1.97 -11.14,4.32 -6.12,2.34 -11.28,4.32 -11.45,4.39 l -0.31,0.12 0.13,-0.22 c 0.06,-0.13 1.72,-2.92 3.68,-6.2 1.96,-3.28 3.61,-5.97 3.66,-5.97 z m -16.69,0.01 c 0.15,-0.01 0.85,1.1 3.75,5.96 1.96,3.28 3.61,6.07 3.68,6.19 l 0.12,0.22 -0.55,-0.21 c -0.3,-0.11 -5.45,-2.09 -11.45,-4.38 -5.99,-2.3 -10.9,-4.2 -10.9,-4.23 0,-0.02 0.71,-0.21 1.57,-0.4 0.87,-0.2 4.28,-0.99 7.58,-1.75 3.3,-0.77 6.09,-1.4 6.2,-1.4 z m 32.93,4.03 c 0.04,0 0.07,3.34 0.07,7.44 v 7.44 l -10.42,7.57 c -5.74,4.17 -10.44,7.57 -10.45,7.55 -0.01,-0.01 -0.77,-4.61 -1.68,-10.21 -0.91,-5.6 -1.65,-10.26 -1.65,-10.36 0,-0.17 1.62,-0.82 12.03,-4.81 6.62,-2.54 12.06,-4.62 12.1,-4.62 z m -48.98,0.01 c 0.07,0.03 5.51,2.11 12.11,4.64 10.37,3.97 11.98,4.61 11.98,4.78 0,0.1 -0.74,4.76 -1.65,10.36 -0.92,5.6 -1.67,10.2 -1.68,10.21 -0.01,0.02 -4.45,-3.19 -9.86,-7.12 -5.41,-3.93 -10.1,-7.34 -10.43,-7.57 l -0.58,-0.43 v -7.45 c 0,-5.92 0.02,-7.44 0.11,-7.41 z m -0.89,0.47 c 0.02,0.01 0.03,3.21 0.03,7.15 v 7.16 l -6.65,2.69 c -3.66,1.48 -6.69,2.69 -6.74,2.69 -0.05,0 -0.21,-0.67 -0.36,-1.49 l -0.25,-1.48 6.98,-8.37 c 3.83,-4.59 6.97,-8.34 6.99,-8.35 z m 50.76,0.02 c 0.04,0.04 3.2,3.82 7.02,8.39 l 6.95,8.32 -0.29,1.43 c -0.15,0.78 -0.31,1.45 -0.35,1.48 -0.03,0.04 -3.06,-1.15 -6.73,-2.63 l -6.67,-2.71 v -7.17 c 0,-3.95 0.04,-7.15 0.07,-7.11 z m 360.9,7.13 h 37.59 c 8.43,0 15.3,6.87 15.3,15.3 v 15.75 c 0,8.42 -6.87,15.3 -15.3,15.3 h -37.59 c -8.42,0 -15.3,-6.88 -15.3,-15.3 v -15.75 c 0,-8.43 6.88,-15.3 15.3,-15.3 z m 220.03,0 h 37.59 c 8.43,0 15.3,6.87 15.3,15.3 v 15.75 c 0,8.42 -6.87,15.3 -15.3,15.3 h -37.59 c -8.43,0 -15.3,-6.88 -15.3,-15.3 v -15.75 c 0,-8.43 6.87,-15.3 15.3,-15.3 z m -606.32,3.72 c 0.02,0 0.72,4.21 1.56,9.36 0.83,5.15 1.49,9.39 1.47,9.43 -0.02,0.03 -1.39,0.07 -3.03,0.07 -1.65,0 -3.01,-0.04 -3.04,-0.07 -0.02,-0.04 0.64,-4.28 1.47,-9.43 0.84,-5.15 1.54,-9.36 1.57,-9.36 z m -44.53,2.73 0.41,0.3 c 0.23,0.17 1.22,0.9 2.21,1.63 l 1.79,1.32 0.3,1.54 c 0.16,0.84 0.29,1.54 0.28,1.55 0,0 -5.66,0.8 -12.57,1.76 -6.9,0.96 -12.6,1.74 -12.65,1.72 -0.06,-0.02 0.44,-0.29 1.11,-0.61 0.66,-0.32 1.82,-0.87 2.57,-1.23 0.75,-0.37 4.77,-2.31 8.95,-4.32 z m 89.09,0.03 c 0.03,0.01 4.61,2.21 10.17,4.89 5.57,2.68 10.08,4.88 10.03,4.9 -0.05,0.02 -5.11,-0.67 -11.25,-1.53 -6.13,-0.85 -11.78,-1.64 -12.56,-1.75 -0.77,-0.11 -1.41,-0.2 -1.42,-0.2 0,-0.01 0.12,-0.71 0.29,-1.55 l 0.3,-1.54 2.2,-1.62 c 1.21,-0.89 2.22,-1.61 2.24,-1.6 z m -70.06,1.47 c 0.04,0 0.07,0.71 0.07,1.59 v 1.59 l -0.35,0.23 c -0.2,0.12 -2.04,1.18 -4.1,2.34 -2.05,1.17 -3.78,2.12 -3.82,2.12 -0.05,0 -1.1,-0.6 -2.34,-1.33 -1.78,-1.05 -2.22,-1.35 -2.09,-1.41 0.1,-0.04 2.96,-1.21 6.37,-2.6 3.4,-1.39 6.22,-2.53 6.26,-2.53 z m 51.07,0.03 c 0.08,0.03 2.92,1.18 6.31,2.55 3.39,1.38 6.22,2.53 6.29,2.57 0.08,0.04 -0.69,0.55 -2.13,1.39 -1.23,0.74 -2.29,1.33 -2.33,1.33 -0.05,0 -0.93,-0.47 -1.96,-1.06 -1.03,-0.58 -2.76,-1.56 -3.84,-2.17 -1.08,-0.61 -2.09,-1.19 -2.23,-1.29 l -0.26,-0.18 v -1.6 c 0,-1.42 0.02,-1.59 0.15,-1.54 z m -0.87,0.15 c 0.04,0 0.07,0.71 0.07,1.58 v 1.57 l -4.4,5.58 c -3.48,4.42 -4.82,6.21 -6.47,8.63 -1.15,1.68 -2.13,3.05 -2.19,3.05 -0.05,0 -1.77,-1.23 -3.83,-2.72 -2.06,-1.5 -3.74,-2.75 -3.75,-2.77 0,-0.03 0.18,-0.17 0.4,-0.33 0.22,-0.15 2.67,-1.93 5.46,-3.95 2.79,-2.02 7.22,-5.24 9.85,-7.15 2.63,-1.91 4.82,-3.48 4.86,-3.49 z m -49.39,0.01 v 0.01 c 0.05,0.01 4.69,3.36 10.32,7.44 5.63,4.08 10.23,7.43 10.23,7.46 0,0.02 -1.68,1.27 -3.74,2.77 -2.05,1.49 -3.78,2.72 -3.84,2.72 -0.05,0 -1.03,-1.37 -2.18,-3.05 -1.66,-2.43 -2.99,-4.2 -6.48,-8.63 l -4.4,-5.58 v -1.58 c 0,-0.93 0.04,-1.58 0.09,-1.56 z m 49.9,3.74 c 0.02,0 1.72,0.96 3.78,2.13 2.06,1.17 3.75,2.15 3.75,2.19 0,0.03 -3.44,1.32 -7.65,2.86 -4.21,1.54 -7.66,2.78 -7.68,2.76 -0.01,-0.02 1.73,-2.27 3.87,-4.99 2.15,-2.72 3.92,-4.95 3.93,-4.95 z m -50.44,0.03 c 0.04,0.01 1.82,2.24 3.95,4.95 2.14,2.7 3.88,4.94 3.86,4.95 -0.01,0.02 -3.47,-1.22 -7.68,-2.76 -4.21,-1.53 -7.65,-2.82 -7.65,-2.85 0,-0.03 1.68,-1.02 3.73,-2.18 2.05,-1.17 3.76,-2.12 3.79,-2.11 z m -14.25,1.58 c 0.09,-0.01 0.23,0.1 0.32,0.23 l 0.16,0.25 -0.28,0.25 c -0.15,0.13 -2.66,2.36 -5.57,4.96 l -5.3,4.71 -0.84,1.27 c -0.46,0.7 -0.86,1.27 -0.9,1.27 -0.04,0 -2.45,-1.53 -5.36,-3.39 -2.91,-1.87 -6.12,-3.92 -7.14,-4.58 l -1.85,-1.18 0.3,-0.07 c 0.17,-0.04 5.18,-0.75 11.14,-1.58 5.96,-0.83 11.81,-1.65 13,-1.82 1.18,-0.17 2.23,-0.31 2.32,-0.32 z m 78.83,0.03 c 0.07,-0.03 0.17,-0.02 0.32,0 0.19,0.03 6.11,0.86 13.15,1.84 7.04,0.98 12.94,1.81 13.11,1.85 l 0.3,0.07 -1.33,0.86 c -0.73,0.47 -3.95,2.53 -7.14,4.57 -3.19,2.04 -5.83,3.72 -5.87,3.72 -0.04,0 -0.45,-0.58 -0.91,-1.27 l -0.83,-1.27 -5.29,-4.71 c -2.91,-2.6 -5.42,-4.83 -5.58,-4.96 l -0.29,-0.25 0.17,-0.25 c 0.07,-0.11 0.12,-0.17 0.19,-0.2 z m -77.6,0.48 0.33,0.2 c 0.18,0.11 1.13,0.68 2.13,1.27 l 1.81,1.08 3.74,5.15 3.73,5.15 2.84,8.35 c 1.56,4.59 3.41,10.02 4.1,12.05 0.69,2.04 1.22,3.67 1.17,3.62 -0.04,-0.05 -4.38,-8.1 -9.63,-17.88 -5.25,-9.78 -9.7,-18.05 -9.88,-18.38 z m 76.3,0.17 c 0.01,0.02 -4.39,8.26 -9.79,18.32 -5.41,10.06 -9.87,18.32 -9.91,18.38 -0.05,0.05 0.48,-1.58 1.18,-3.63 0.69,-2.04 2.54,-7.47 4.1,-12.05 l 2.83,-8.34 3.73,-5.15 3.74,-5.15 2.04,-1.2 c 1.12,-0.67 2.06,-1.19 2.08,-1.18 z m 0.67,0.55 c 0.04,0.01 2.19,1.9 4.77,4.2 2.58,2.3 4.68,4.19 4.67,4.2 -0.01,0.01 -2.67,-0.9 -5.91,-2.04 -3.25,-1.13 -5.91,-2.07 -5.92,-2.09 -0.01,-0.01 0.47,-0.93 1.07,-2.04 0.6,-1.11 1.13,-2.07 1.17,-2.14 0.04,-0.07 0.11,-0.11 0.15,-0.09 z m -77.45,0.01 c 0.05,0.02 0.61,0.98 1.24,2.13 0.73,1.36 1.09,2.13 1.03,2.17 -0.06,0.03 -2.72,0.97 -5.92,2.09 -3.19,1.11 -5.82,2.01 -5.83,2 -0.01,-0.01 2.1,-1.91 4.69,-4.22 2.58,-2.3 4.74,-4.18 4.79,-4.17 z m 71.34,2.36 c 0.02,0.02 -1.45,2.07 -3.26,4.57 l -3.3,4.55 -4.36,-1.74 c -2.39,-0.96 -4.35,-1.77 -4.35,-1.8 0,-0.02 0.58,-0.26 1.29,-0.51 0.71,-0.26 4.14,-1.51 7.62,-2.78 3.48,-1.28 6.35,-2.31 6.36,-2.29 z m -65.28,0 c 0,-0.02 0.26,0.05 0.58,0.17 0.33,0.11 3.77,1.37 7.65,2.79 3.88,1.41 7.06,2.6 7.06,2.62 0,0.03 -1.83,0.79 -4.06,1.68 -2.23,0.9 -4.19,1.69 -4.35,1.76 l -0.29,0.12 -3.3,-4.54 c -1.81,-2.5 -3.29,-4.57 -3.29,-4.6 z m 68.67,2.58 c 0.03,0 3.1,1.06 6.83,2.36 l 6.78,2.36 0.62,0.93 c 0.34,0.52 0.6,0.95 0.57,0.98 -0.02,0.02 -2.59,-0.66 -5.71,-1.52 -3.11,-0.86 -6.67,-1.84 -7.91,-2.18 -1.24,-0.34 -2.29,-0.65 -2.33,-0.69 -0.05,-0.03 0.18,-0.56 0.51,-1.15 0.32,-0.6 0.61,-1.09 0.64,-1.09 z m -72.09,0 c 0.06,0 0.37,0.49 0.69,1.09 0.32,0.59 0.55,1.12 0.51,1.16 -0.05,0.04 -0.86,0.28 -1.82,0.54 -0.95,0.27 -4.51,1.24 -7.91,2.18 -3.4,0.94 -6.2,1.68 -6.22,1.66 -0.03,-0.03 0.23,-0.46 0.57,-0.97 l 0.62,-0.93 6.73,-2.36 c 3.7,-1.3 6.78,-2.36 6.83,-2.37 z m 52.51,3.47 c 0.05,0 2.14,0.83 4.65,1.84 2.51,1.01 4.58,1.85 4.6,1.87 0.02,0.02 -2,6.03 -4.49,13.36 -2.5,7.33 -4.56,13.33 -4.59,13.33 -0.03,0 -1.03,-5.48 -2.23,-12.17 l -2.18,-12.16 2.08,-3.04 c 1.14,-1.67 2.11,-3.03 2.16,-3.03 z m -32.9,0 c 0.05,0 1.03,1.36 2.18,3.03 l 2.08,3.04 -2.18,12.16 c -1.2,6.69 -2.21,12.17 -2.24,12.17 -0.03,0 -2.09,-6.01 -4.59,-13.34 -2.49,-7.34 -4.49,-13.36 -4.45,-13.38 0.05,-0.01 2.12,-0.85 4.6,-1.85 2.47,-1 4.54,-1.82 4.6,-1.83 z m 13.19,0.1 h 1.44 1.44 v 29.17 l -0.16,0.04 c -0.09,0.03 -3.55,0.53 -7.69,1.11 -4.14,0.58 -7.55,1.03 -7.59,0.99 -0.03,-0.03 2.57,-6.57 5.78,-14.53 3.22,-7.97 6.06,-15 6.31,-15.63 z m 3.63,0 h 1.45 1.44 l 0.46,1.15 c 0.26,0.63 3.1,7.66 6.31,15.63 3.21,7.96 5.82,14.5 5.79,14.53 -0.03,0.03 -1,-0.07 -2.15,-0.24 -1.15,-0.16 -4.51,-0.63 -7.48,-1.04 -2.97,-0.42 -5.49,-0.78 -5.61,-0.81 l -0.21,-0.04 z m -4.72,0.88 c 0.01,0.01 -2.47,6.19 -5.53,13.74 -3.05,7.54 -5.56,13.7 -5.58,13.68 -0.01,-0.02 0.86,-4.98 1.95,-11.02 1.08,-6.05 1.97,-11.03 1.97,-11.07 0,-0.05 1.15,-0.93 2.55,-1.95 1.4,-1.03 3.02,-2.21 3.59,-2.63 0.57,-0.42 1.04,-0.75 1.05,-0.75 z m 8.67,0.03 c -0.02,-0.05 0.05,-0.03 0.15,0.04 0.1,0.07 1.73,1.26 3.63,2.65 1.89,1.39 3.44,2.56 3.44,2.6 0,0.05 0.88,5.04 1.97,11.08 1.08,6.05 1.96,11.01 1.94,11.02 -0.02,0.02 -2.52,-6.12 -5.56,-13.63 -3.04,-7.51 -5.55,-13.71 -5.57,-13.76 z m 131.02,6.9 h 54 c 4.21,0 7.65,3.43 7.65,7.65 0,4.21 -3.44,7.65 -7.65,7.65 h -54 z m -135.2,22.08 c 0.15,0.02 3.72,0.54 7.93,1.17 4.2,0.62 7.67,1.14 7.71,1.15 0.04,0.01 -1.86,2.67 -4.22,5.9 l -4.29,5.89 h -14.54 l -3.94,-5.41 c -2.17,-2.97 -4.1,-5.62 -4.29,-5.89 l -0.35,-0.48 3.96,-0.59 c 2.18,-0.33 5.71,-0.86 7.85,-1.18 2.14,-0.33 4.02,-0.58 4.18,-0.56 z m 16.16,3.02 c 0.02,0.06 0.2,0.96 0.39,1.99 l 0.35,1.88 -3.81,2.8 c -2.09,1.53 -3.87,2.83 -3.94,2.88 -0.08,0.04 -0.04,-0.07 0.1,-0.24 0.13,-0.18 1.73,-2.37 3.56,-4.87 1.82,-2.5 3.33,-4.49 3.35,-4.44 z m -32.49,0.04 c 0.07,0.07 1.63,2.19 3.48,4.72 1.84,2.53 3.4,4.66 3.45,4.73 0.09,0.11 0.08,0.12 -0.04,0.05 -0.08,-0.05 -1.86,-1.35 -3.95,-2.88 l -3.81,-2.8 0.08,-0.35 c 0.04,-0.19 0.21,-1.08 0.37,-1.97 0.25,-1.31 0.33,-1.6 0.42,-1.5 z m 33.38,0.01 c 0.09,0.04 0.22,0.13 0.42,0.28 0.3,0.23 0.92,0.72 1.38,1.08 l 0.84,0.66 1.2,3.93 c 0.66,2.16 1.18,3.96 1.17,4.01 -0.01,0.04 -1,-1.3 -2.2,-2.98 -1.2,-1.68 -2.2,-3.11 -2.22,-3.18 -0.03,-0.07 -0.2,-0.91 -0.38,-1.87 -0.18,-0.96 -0.33,-1.82 -0.33,-1.91 0,-0.05 0.04,-0.07 0.12,-0.02 z m -34.29,0.02 c 0.02,0.06 -0.12,0.91 -0.3,1.89 -0.19,0.97 -0.36,1.82 -0.38,1.89 -0.03,0.07 -1.03,1.5 -2.23,3.18 -1.19,1.68 -2.18,3.02 -2.2,2.98 -0.01,-0.05 0.52,-1.85 1.17,-4.01 l 1.2,-3.93 1.36,-1.06 c 0.75,-0.59 1.37,-1.01 1.38,-0.94 z m 33.95,4.86 c 0.01,0.01 -0.7,3.38 -1.59,7.49 -0.89,4.11 -1.64,7.5 -1.67,7.54 -0.03,0.03 -1.29,-1.84 -2.8,-4.15 -1.52,-2.31 -2.75,-4.25 -2.76,-4.32 -0.01,-0.06 1.97,-1.56 4.4,-3.34 2.42,-1.78 4.41,-3.23 4.42,-3.22 z m -33.72,0.01 c 0.01,-0.02 0.04,-0.01 0.09,0.02 0.08,0.05 2.09,1.52 4.47,3.27 2.39,1.75 4.32,3.23 4.3,3.28 -0.02,0.06 -1.28,2 -2.79,4.31 -1.51,2.31 -2.77,4.17 -2.81,4.12 -0.03,-0.04 -0.77,-3.37 -1.63,-7.39 -0.86,-4.03 -1.59,-7.4 -1.62,-7.49 -0.02,-0.07 -0.02,-0.11 -0.01,-0.12 z m -0.77,0.06 c 0.03,0 0.78,3.34 1.66,7.43 0.88,4.09 1.59,7.45 1.57,7.47 -0.01,0.02 -1.9,-1.69 -4.19,-3.78 -2.28,-2.1 -4.15,-3.86 -4.14,-3.93 0,-0.06 1.14,-1.7 2.53,-3.65 1.38,-1.95 2.54,-3.54 2.57,-3.54 z m 35.29,0.02 c 0.04,0.01 1.2,1.61 2.57,3.54 1.38,1.94 2.52,3.56 2.54,3.62 0.02,0.05 -1.84,1.81 -4.14,3.92 -2.3,2.11 -4.2,3.82 -4.22,3.8 -0.01,-0.02 0.69,-3.38 1.58,-7.47 0.88,-4.09 1.63,-7.43 1.67,-7.41 z m -24.85,6.75 h 7.2 7.19 l 0.14,0.16 c 0.08,0.09 1.23,1.83 2.56,3.86 1.33,2.03 2.4,3.7 2.39,3.72 -0.02,0.01 -1.59,-1.09 -3.5,-2.45 l -3.46,-2.48 h -10.67 l -3.21,2.33 c -1.77,1.28 -3.36,2.42 -3.53,2.55 l -0.32,0.22 0.33,-0.51 c 0.18,-0.28 1.29,-1.98 2.46,-3.79 1.18,-1.8 2.21,-3.36 2.28,-3.45 z m 12.28,3.56 3.77,2.61 3.77,2.6 -6.31,0.03 c -3.47,0.01 -9.15,0.01 -12.61,0 l -6.31,-0.03 3.75,-2.6 3.74,-2.59 5.1,-0.01 z" /></g></svg>